ISO-10303-21;
HEADER;
/* Generated by software containing ST-Developer
 * from STEP Tools, Inc. (www.steptools.com) 
 */

FILE_DESCRIPTION(
/* description */ ('Open CASCADE Model'),
/* implementation_level */ '2;1');

FILE_NAME(
/* name */ 'HV_Bus_Bar.step',
/* time_stamp */ '2026-01-08T16:46:55+02:00',
/* author */ (''),
/* organization */ (''),
/* preprocessor_version */ 'ST-DEVELOPER v20.1',
/* originating_system */ 'Autodesk Translation Framework v14.21.0.0',
/* authorisation */ '');

FILE_SCHEMA (('AUTOMOTIVE_DESIGN { 1 0 10303 214 3 1 1 }'));
ENDSEC;

DATA;
#10=MECHANICAL_DESIGN_GEOMETRIC_PRESENTATION_REPRESENTATION('',(#13),#906);
#11=SHAPE_REPRESENTATION_RELATIONSHIP('SRR','None',#912,#12);
#12=ADVANCED_BREP_SHAPE_REPRESENTATION('',(#14),#905);
#13=STYLED_ITEM('',(#921),#14);
#14=MANIFOLD_SOLID_BREP('HV_Bus_Bar',#546);
#15=FACE_BOUND('',#84,.T.);
#16=FACE_BOUND('',#90,.T.);
#17=FACE_BOUND('',#111,.T.);
#18=FACE_BOUND('',#113,.T.);
#19=PLANE('',#551);
#20=PLANE('',#555);
#21=PLANE('',#559);
#22=PLANE('',#560);
#23=PLANE('',#564);
#24=PLANE('',#568);
#25=PLANE('',#569);
#26=PLANE('',#573);
#27=PLANE('',#574);
#28=PLANE('',#575);
#29=PLANE('',#576);
#30=PLANE('',#577);
#31=PLANE('',#578);
#32=PLANE('',#579);
#33=PLANE('',#580);
#34=PLANE('',#581);
#35=PLANE('',#582);
#36=PLANE('',#583);
#37=PLANE('',#584);
#38=PLANE('',#585);
#39=PLANE('',#592);
#40=PLANE('',#593);
#41=PLANE('',#594);
#42=PLANE('',#595);
#43=PLANE('',#596);
#44=FACE_OUTER_BOUND('',#77,.T.);
#45=FACE_OUTER_BOUND('',#78,.T.);
#46=FACE_OUTER_BOUND('',#79,.T.);
#47=FACE_OUTER_BOUND('',#80,.T.);
#48=FACE_OUTER_BOUND('',#81,.T.);
#49=FACE_OUTER_BOUND('',#82,.T.);
#50=FACE_OUTER_BOUND('',#83,.T.);
#51=FACE_OUTER_BOUND('',#85,.T.);
#52=FACE_OUTER_BOUND('',#86,.T.);
#53=FACE_OUTER_BOUND('',#87,.T.);
#54=FACE_OUTER_BOUND('',#88,.T.);
#55=FACE_OUTER_BOUND('',#89,.T.);
#56=FACE_OUTER_BOUND('',#91,.T.);
#57=FACE_OUTER_BOUND('',#92,.T.);
#58=FACE_OUTER_BOUND('',#93,.T.);
#59=FACE_OUTER_BOUND('',#94,.T.);
#60=FACE_OUTER_BOUND('',#95,.T.);
#61=FACE_OUTER_BOUND('',#96,.T.);
#62=FACE_OUTER_BOUND('',#97,.T.);
#63=FACE_OUTER_BOUND('',#98,.T.);
#64=FACE_OUTER_BOUND('',#99,.T.);
#65=FACE_OUTER_BOUND('',#100,.T.);
#66=FACE_OUTER_BOUND('',#101,.T.);
#67=FACE_OUTER_BOUND('',#102,.T.);
#68=FACE_OUTER_BOUND('',#103,.T.);
#69=FACE_OUTER_BOUND('',#104,.T.);
#70=FACE_OUTER_BOUND('',#105,.T.);
#71=FACE_OUTER_BOUND('',#106,.T.);
#72=FACE_OUTER_BOUND('',#107,.T.);
#73=FACE_OUTER_BOUND('',#108,.T.);
#74=FACE_OUTER_BOUND('',#109,.T.);
#75=FACE_OUTER_BOUND('',#110,.T.);
#76=FACE_OUTER_BOUND('',#112,.T.);
#77=EDGE_LOOP('',(#359,#360,#361,#362));
#78=EDGE_LOOP('',(#363,#364,#365,#366));
#79=EDGE_LOOP('',(#367,#368,#369,#370));
#80=EDGE_LOOP('',(#371,#372,#373,#374));
#81=EDGE_LOOP('',(#375,#376,#377,#378));
#82=EDGE_LOOP('',(#379,#380,#381,#382));
#83=EDGE_LOOP('',(#383,#384,#385,#386));
#84=EDGE_LOOP('',(#387,#388,#389,#390));
#85=EDGE_LOOP('',(#391,#392,#393,#394));
#86=EDGE_LOOP('',(#395,#396,#397,#398));
#87=EDGE_LOOP('',(#399,#400,#401,#402));
#88=EDGE_LOOP('',(#403,#404,#405,#406));
#89=EDGE_LOOP('',(#407,#408,#409,#410));
#90=EDGE_LOOP('',(#411,#412,#413,#414));
#91=EDGE_LOOP('',(#415,#416,#417,#418));
#92=EDGE_LOOP('',(#419,#420,#421,#422));
#93=EDGE_LOOP('',(#423,#424,#425,#426));
#94=EDGE_LOOP('',(#427,#428,#429,#430));
#95=EDGE_LOOP('',(#431,#432,#433,#434));
#96=EDGE_LOOP('',(#435,#436,#437,#438));
#97=EDGE_LOOP('',(#439,#440,#441,#442));
#98=EDGE_LOOP('',(#443,#444,#445,#446));
#99=EDGE_LOOP('',(#447,#448,#449,#450));
#100=EDGE_LOOP('',(#451,#452,#453,#454));
#101=EDGE_LOOP('',(#455,#456,#457,#458));
#102=EDGE_LOOP('',(#459,#460,#461,#462));
#103=EDGE_LOOP('',(#463,#464,#465,#466));
#104=EDGE_LOOP('',(#467,#468,#469,#470));
#105=EDGE_LOOP('',(#471,#472,#473,#474));
#106=EDGE_LOOP('',(#475,#476,#477,#478));
#107=EDGE_LOOP('',(#479,#480,#481,#482));
#108=EDGE_LOOP('',(#483,#484,#485,#486));
#109=EDGE_LOOP('',(#487,#488,#489,#490));
#110=EDGE_LOOP('',(#491,#492,#493,#494,#495,#496));
#111=EDGE_LOOP('',(#497));
#112=EDGE_LOOP('',(#498,#499,#500,#501,#502,#503));
#113=EDGE_LOOP('',(#504));
#114=LINE('',#760,#171);
#115=LINE('',#763,#172);
#116=LINE('',#766,#173);
#117=LINE('',#768,#174);
#118=LINE('',#769,#175);
#119=LINE('',#775,#176);
#120=LINE('',#777,#177);
#121=LINE('',#778,#178);
#122=LINE('',#784,#179);
#123=LINE('',#787,#180);
#124=LINE('',#790,#181);
#125=LINE('',#792,#182);
#126=LINE('',#793,#183);
#127=LINE('',#796,#184);
#128=LINE('',#798,#185);
#129=LINE('',#799,#186);
#130=LINE('',#805,#187);
#131=LINE('',#808,#188);
#132=LINE('',#810,#189);
#133=LINE('',#811,#190);
#134=LINE('',#817,#191);
#135=LINE('',#820,#192);
#136=LINE('',#823,#193);
#137=LINE('',#825,#194);
#138=LINE('',#826,#195);
#139=LINE('',#829,#196);
#140=LINE('',#831,#197);
#141=LINE('',#832,#198);
#142=LINE('',#837,#199);
#143=LINE('',#841,#200);
#144=LINE('',#843,#201);
#145=LINE('',#844,#202);
#146=LINE('',#846,#203);
#147=LINE('',#847,#204);
#148=LINE('',#849,#205);
#149=LINE('',#850,#206);
#150=LINE('',#852,#207);
#151=LINE('',#854,#208);
#152=LINE('',#856,#209);
#153=LINE('',#858,#210);
#154=LINE('',#861,#211);
#155=LINE('',#863,#212);
#156=LINE('',#865,#213);
#157=LINE('',#867,#214);
#158=LINE('',#871,#215);
#159=LINE('',#873,#216);
#160=LINE('',#875,#217);
#161=LINE('',#876,#218);
#162=LINE('',#881,#219);
#163=LINE('',#888,#220);
#164=LINE('',#891,#221);
#165=LINE('',#893,#222);
#166=LINE('',#894,#223);
#167=LINE('',#896,#224);
#168=LINE('',#897,#225);
#169=LINE('',#899,#226);
#170=LINE('',#900,#227);
#171=VECTOR('',#603,10.);
#172=VECTOR('',#606,10.);
#173=VECTOR('',#609,10.);
#174=VECTOR('',#610,10.);
#175=VECTOR('',#611,10.);
#176=VECTOR('',#618,10.);
#177=VECTOR('',#621,10.);
#178=VECTOR('',#622,10.);
#179=VECTOR('',#627,10.);
#180=VECTOR('',#630,10.);
#181=VECTOR('',#633,10.);
#182=VECTOR('',#634,10.);
#183=VECTOR('',#635,10.);
#184=VECTOR('',#638,10.);
#185=VECTOR('',#639,10.);
#186=VECTOR('',#640,10.);
#187=VECTOR('',#647,10.);
#188=VECTOR('',#650,10.);
#189=VECTOR('',#651,10.);
#190=VECTOR('',#652,10.);
#191=VECTOR('',#657,10.);
#192=VECTOR('',#660,10.);
#193=VECTOR('',#663,10.);
#194=VECTOR('',#664,10.);
#195=VECTOR('',#665,10.);
#196=VECTOR('',#668,10.);
#197=VECTOR('',#669,10.);
#198=VECTOR('',#670,10.);
#199=VECTOR('',#675,10.);
#200=VECTOR('',#680,10.);
#201=VECTOR('',#681,10.);
#202=VECTOR('',#682,10.);
#203=VECTOR('',#685,10.);
#204=VECTOR('',#686,10.);
#205=VECTOR('',#689,10.);
#206=VECTOR('',#690,10.);
#207=VECTOR('',#693,10.);
#208=VECTOR('',#696,10.);
#209=VECTOR('',#699,10.);
#210=VECTOR('',#702,10.);
#211=VECTOR('',#707,10.);
#212=VECTOR('',#710,10.);
#213=VECTOR('',#713,10.);
#214=VECTOR('',#716,10.);
#215=VECTOR('',#719,10.);
#216=VECTOR('',#720,10.);
#217=VECTOR('',#721,10.);
#218=VECTOR('',#722,10.);
#219=VECTOR('',#727,1.642628512007);
#220=VECTOR('',#736,10.);
#221=VECTOR('',#739,10.);
#222=VECTOR('',#740,10.);
#223=VECTOR('',#741,10.);
#224=VECTOR('',#744,10.);
#225=VECTOR('',#745,10.);
#226=VECTOR('',#748,10.);
#227=VECTOR('',#749,10.);
#228=CIRCLE('',#549,1.6);
#229=CIRCLE('',#550,1.6);
#230=CIRCLE('',#553,1.6);
#231=CIRCLE('',#554,1.6);
#232=CIRCLE('',#557,1.);
#233=CIRCLE('',#558,1.);
#234=CIRCLE('',#562,2.);
#235=CIRCLE('',#563,2.);
#236=CIRCLE('',#566,2.);
#237=CIRCLE('',#567,2.);
#238=CIRCLE('',#571,1.);
#239=CIRCLE('',#572,1.);
#240=CIRCLE('',#587,1.642628512007);
#241=CIRCLE('',#588,1.642628512007);
#242=CIRCLE('',#590,3.11149999999801);
#243=CIRCLE('',#591,3.11149999999801);
#244=VERTEX_POINT('',#756);
#245=VERTEX_POINT('',#757);
#246=VERTEX_POINT('',#759);
#247=VERTEX_POINT('',#761);
#248=VERTEX_POINT('',#765);
#249=VERTEX_POINT('',#767);
#250=VERTEX_POINT('',#771);
#251=VERTEX_POINT('',#773);
#252=VERTEX_POINT('',#780);
#253=VERTEX_POINT('',#781);
#254=VERTEX_POINT('',#783);
#255=VERTEX_POINT('',#785);
#256=VERTEX_POINT('',#789);
#257=VERTEX_POINT('',#791);
#258=VERTEX_POINT('',#795);
#259=VERTEX_POINT('',#797);
#260=VERTEX_POINT('',#801);
#261=VERTEX_POINT('',#803);
#262=VERTEX_POINT('',#807);
#263=VERTEX_POINT('',#809);
#264=VERTEX_POINT('',#813);
#265=VERTEX_POINT('',#814);
#266=VERTEX_POINT('',#816);
#267=VERTEX_POINT('',#818);
#268=VERTEX_POINT('',#822);
#269=VERTEX_POINT('',#824);
#270=VERTEX_POINT('',#828);
#271=VERTEX_POINT('',#830);
#272=VERTEX_POINT('',#834);
#273=VERTEX_POINT('',#836);
#274=VERTEX_POINT('',#840);
#275=VERTEX_POINT('',#842);
#276=VERTEX_POINT('',#869);
#277=VERTEX_POINT('',#870);
#278=VERTEX_POINT('',#872);
#279=VERTEX_POINT('',#874);
#280=VERTEX_POINT('',#878);
#281=VERTEX_POINT('',#880);
#282=VERTEX_POINT('',#884);
#283=VERTEX_POINT('',#886);
#284=VERTEX_POINT('',#890);
#285=VERTEX_POINT('',#892);
#286=EDGE_CURVE('',#244,#245,#228,.T.);
#287=EDGE_CURVE('',#244,#246,#114,.T.);
#288=EDGE_CURVE('',#247,#246,#229,.T.);
#289=EDGE_CURVE('',#245,#247,#115,.T.);
#290=EDGE_CURVE('',#245,#248,#116,.T.);
#291=EDGE_CURVE('',#249,#247,#117,.T.);
#292=EDGE_CURVE('',#248,#249,#118,.T.);
#293=EDGE_CURVE('',#248,#250,#230,.T.);
#294=EDGE_CURVE('',#251,#249,#231,.T.);
#295=EDGE_CURVE('',#250,#251,#119,.T.);
#296=EDGE_CURVE('',#250,#244,#120,.T.);
#297=EDGE_CURVE('',#246,#251,#121,.T.);
#298=EDGE_CURVE('',#252,#253,#232,.T.);
#299=EDGE_CURVE('',#253,#254,#122,.T.);
#300=EDGE_CURVE('',#254,#255,#233,.T.);
#301=EDGE_CURVE('',#255,#252,#123,.T.);
#302=EDGE_CURVE('',#256,#255,#124,.T.);
#303=EDGE_CURVE('',#257,#256,#125,.T.);
#304=EDGE_CURVE('',#257,#252,#126,.T.);
#305=EDGE_CURVE('',#253,#258,#127,.T.);
#306=EDGE_CURVE('',#259,#258,#128,.T.);
#307=EDGE_CURVE('',#254,#259,#129,.T.);
#308=EDGE_CURVE('',#260,#257,#234,.T.);
#309=EDGE_CURVE('',#256,#261,#235,.T.);
#310=EDGE_CURVE('',#261,#260,#130,.T.);
#311=EDGE_CURVE('',#262,#261,#131,.T.);
#312=EDGE_CURVE('',#263,#262,#132,.T.);
#313=EDGE_CURVE('',#263,#260,#133,.T.);
#314=EDGE_CURVE('',#264,#265,#236,.T.);
#315=EDGE_CURVE('',#266,#264,#134,.T.);
#316=EDGE_CURVE('',#267,#266,#237,.T.);
#317=EDGE_CURVE('',#265,#267,#135,.T.);
#318=EDGE_CURVE('',#268,#264,#136,.T.);
#319=EDGE_CURVE('',#268,#269,#137,.T.);
#320=EDGE_CURVE('',#269,#266,#138,.T.);
#321=EDGE_CURVE('',#267,#270,#139,.T.);
#322=EDGE_CURVE('',#270,#271,#140,.T.);
#323=EDGE_CURVE('',#265,#271,#141,.T.);
#324=EDGE_CURVE('',#272,#268,#238,.T.);
#325=EDGE_CURVE('',#273,#272,#142,.T.);
#326=EDGE_CURVE('',#269,#273,#239,.T.);
#327=EDGE_CURVE('',#274,#272,#143,.T.);
#328=EDGE_CURVE('',#274,#275,#144,.T.);
#329=EDGE_CURVE('',#275,#273,#145,.T.);
#330=EDGE_CURVE('',#265,#253,#146,.T.);
#331=EDGE_CURVE('',#264,#252,#147,.T.);
#332=EDGE_CURVE('',#266,#255,#148,.T.);
#333=EDGE_CURVE('',#267,#254,#149,.T.);
#334=EDGE_CURVE('',#269,#256,#150,.T.);
#335=EDGE_CURVE('',#268,#257,#151,.T.);
#336=EDGE_CURVE('',#271,#258,#152,.T.);
#337=EDGE_CURVE('',#270,#259,#153,.T.);
#338=EDGE_CURVE('',#272,#260,#154,.T.);
#339=EDGE_CURVE('',#273,#261,#155,.T.);
#340=EDGE_CURVE('',#275,#262,#156,.T.);
#341=EDGE_CURVE('',#274,#263,#157,.T.);
#342=EDGE_CURVE('',#276,#277,#158,.T.);
#343=EDGE_CURVE('',#277,#278,#159,.T.);
#344=EDGE_CURVE('',#279,#278,#160,.T.);
#345=EDGE_CURVE('',#276,#279,#161,.T.);
#346=EDGE_CURVE('',#280,#280,#240,.T.);
#347=EDGE_CURVE('',#280,#281,#162,.T.);
#348=EDGE_CURVE('',#281,#281,#241,.T.);
#349=EDGE_CURVE('',#282,#276,#242,.T.);
#350=EDGE_CURVE('',#283,#279,#243,.T.);
#351=EDGE_CURVE('',#282,#283,#163,.T.);
#352=EDGE_CURVE('',#282,#284,#164,.T.);
#353=EDGE_CURVE('',#285,#283,#165,.T.);
#354=EDGE_CURVE('',#284,#285,#166,.T.);
#355=EDGE_CURVE('',#274,#277,#167,.T.);
#356=EDGE_CURVE('',#278,#263,#168,.T.);
#357=EDGE_CURVE('',#275,#284,#169,.T.);
#358=EDGE_CURVE('',#262,#285,#170,.T.);
#359=ORIENTED_EDGE('',*,*,#286,.F.);
#360=ORIENTED_EDGE('',*,*,#287,.T.);
#361=ORIENTED_EDGE('',*,*,#288,.F.);
#362=ORIENTED_EDGE('',*,*,#289,.F.);
#363=ORIENTED_EDGE('',*,*,#290,.F.);
#364=ORIENTED_EDGE('',*,*,#289,.T.);
#365=ORIENTED_EDGE('',*,*,#291,.F.);
#366=ORIENTED_EDGE('',*,*,#292,.F.);
#367=ORIENTED_EDGE('',*,*,#293,.F.);
#368=ORIENTED_EDGE('',*,*,#292,.T.);
#369=ORIENTED_EDGE('',*,*,#294,.F.);
#370=ORIENTED_EDGE('',*,*,#295,.F.);
#371=ORIENTED_EDGE('',*,*,#296,.F.);
#372=ORIENTED_EDGE('',*,*,#295,.T.);
#373=ORIENTED_EDGE('',*,*,#297,.F.);
#374=ORIENTED_EDGE('',*,*,#287,.F.);
#375=ORIENTED_EDGE('',*,*,#298,.T.);
#376=ORIENTED_EDGE('',*,*,#299,.T.);
#377=ORIENTED_EDGE('',*,*,#300,.T.);
#378=ORIENTED_EDGE('',*,*,#301,.T.);
#379=ORIENTED_EDGE('',*,*,#301,.F.);
#380=ORIENTED_EDGE('',*,*,#302,.F.);
#381=ORIENTED_EDGE('',*,*,#303,.F.);
#382=ORIENTED_EDGE('',*,*,#304,.T.);
#383=ORIENTED_EDGE('',*,*,#299,.F.);
#384=ORIENTED_EDGE('',*,*,#305,.T.);
#385=ORIENTED_EDGE('',*,*,#306,.F.);
#386=ORIENTED_EDGE('',*,*,#307,.F.);
#387=ORIENTED_EDGE('',*,*,#296,.T.);
#388=ORIENTED_EDGE('',*,*,#286,.T.);
#389=ORIENTED_EDGE('',*,*,#290,.T.);
#390=ORIENTED_EDGE('',*,*,#293,.T.);
#391=ORIENTED_EDGE('',*,*,#308,.T.);
#392=ORIENTED_EDGE('',*,*,#303,.T.);
#393=ORIENTED_EDGE('',*,*,#309,.T.);
#394=ORIENTED_EDGE('',*,*,#310,.T.);
#395=ORIENTED_EDGE('',*,*,#310,.F.);
#396=ORIENTED_EDGE('',*,*,#311,.F.);
#397=ORIENTED_EDGE('',*,*,#312,.F.);
#398=ORIENTED_EDGE('',*,*,#313,.T.);
#399=ORIENTED_EDGE('',*,*,#314,.F.);
#400=ORIENTED_EDGE('',*,*,#315,.F.);
#401=ORIENTED_EDGE('',*,*,#316,.F.);
#402=ORIENTED_EDGE('',*,*,#317,.F.);
#403=ORIENTED_EDGE('',*,*,#315,.T.);
#404=ORIENTED_EDGE('',*,*,#318,.F.);
#405=ORIENTED_EDGE('',*,*,#319,.T.);
#406=ORIENTED_EDGE('',*,*,#320,.T.);
#407=ORIENTED_EDGE('',*,*,#317,.T.);
#408=ORIENTED_EDGE('',*,*,#321,.T.);
#409=ORIENTED_EDGE('',*,*,#322,.T.);
#410=ORIENTED_EDGE('',*,*,#323,.F.);
#411=ORIENTED_EDGE('',*,*,#297,.T.);
#412=ORIENTED_EDGE('',*,*,#294,.T.);
#413=ORIENTED_EDGE('',*,*,#291,.T.);
#414=ORIENTED_EDGE('',*,*,#288,.T.);
#415=ORIENTED_EDGE('',*,*,#324,.F.);
#416=ORIENTED_EDGE('',*,*,#325,.F.);
#417=ORIENTED_EDGE('',*,*,#326,.F.);
#418=ORIENTED_EDGE('',*,*,#319,.F.);
#419=ORIENTED_EDGE('',*,*,#325,.T.);
#420=ORIENTED_EDGE('',*,*,#327,.F.);
#421=ORIENTED_EDGE('',*,*,#328,.T.);
#422=ORIENTED_EDGE('',*,*,#329,.T.);
#423=ORIENTED_EDGE('',*,*,#314,.T.);
#424=ORIENTED_EDGE('',*,*,#330,.T.);
#425=ORIENTED_EDGE('',*,*,#298,.F.);
#426=ORIENTED_EDGE('',*,*,#331,.F.);
#427=ORIENTED_EDGE('',*,*,#316,.T.);
#428=ORIENTED_EDGE('',*,*,#332,.T.);
#429=ORIENTED_EDGE('',*,*,#300,.F.);
#430=ORIENTED_EDGE('',*,*,#333,.F.);
#431=ORIENTED_EDGE('',*,*,#320,.F.);
#432=ORIENTED_EDGE('',*,*,#334,.T.);
#433=ORIENTED_EDGE('',*,*,#302,.T.);
#434=ORIENTED_EDGE('',*,*,#332,.F.);
#435=ORIENTED_EDGE('',*,*,#318,.T.);
#436=ORIENTED_EDGE('',*,*,#331,.T.);
#437=ORIENTED_EDGE('',*,*,#304,.F.);
#438=ORIENTED_EDGE('',*,*,#335,.F.);
#439=ORIENTED_EDGE('',*,*,#323,.T.);
#440=ORIENTED_EDGE('',*,*,#336,.T.);
#441=ORIENTED_EDGE('',*,*,#305,.F.);
#442=ORIENTED_EDGE('',*,*,#330,.F.);
#443=ORIENTED_EDGE('',*,*,#322,.F.);
#444=ORIENTED_EDGE('',*,*,#337,.T.);
#445=ORIENTED_EDGE('',*,*,#306,.T.);
#446=ORIENTED_EDGE('',*,*,#336,.F.);
#447=ORIENTED_EDGE('',*,*,#321,.F.);
#448=ORIENTED_EDGE('',*,*,#333,.T.);
#449=ORIENTED_EDGE('',*,*,#307,.T.);
#450=ORIENTED_EDGE('',*,*,#337,.F.);
#451=ORIENTED_EDGE('',*,*,#324,.T.);
#452=ORIENTED_EDGE('',*,*,#335,.T.);
#453=ORIENTED_EDGE('',*,*,#308,.F.);
#454=ORIENTED_EDGE('',*,*,#338,.F.);
#455=ORIENTED_EDGE('',*,*,#326,.T.);
#456=ORIENTED_EDGE('',*,*,#339,.T.);
#457=ORIENTED_EDGE('',*,*,#309,.F.);
#458=ORIENTED_EDGE('',*,*,#334,.F.);
#459=ORIENTED_EDGE('',*,*,#329,.F.);
#460=ORIENTED_EDGE('',*,*,#340,.T.);
#461=ORIENTED_EDGE('',*,*,#311,.T.);
#462=ORIENTED_EDGE('',*,*,#339,.F.);
#463=ORIENTED_EDGE('',*,*,#327,.T.);
#464=ORIENTED_EDGE('',*,*,#338,.T.);
#465=ORIENTED_EDGE('',*,*,#313,.F.);
#466=ORIENTED_EDGE('',*,*,#341,.F.);
#467=ORIENTED_EDGE('',*,*,#342,.T.);
#468=ORIENTED_EDGE('',*,*,#343,.T.);
#469=ORIENTED_EDGE('',*,*,#344,.F.);
#470=ORIENTED_EDGE('',*,*,#345,.F.);
#471=ORIENTED_EDGE('',*,*,#346,.F.);
#472=ORIENTED_EDGE('',*,*,#347,.T.);
#473=ORIENTED_EDGE('',*,*,#348,.T.);
#474=ORIENTED_EDGE('',*,*,#347,.F.);
#475=ORIENTED_EDGE('',*,*,#349,.T.);
#476=ORIENTED_EDGE('',*,*,#345,.T.);
#477=ORIENTED_EDGE('',*,*,#350,.F.);
#478=ORIENTED_EDGE('',*,*,#351,.F.);
#479=ORIENTED_EDGE('',*,*,#352,.F.);
#480=ORIENTED_EDGE('',*,*,#351,.T.);
#481=ORIENTED_EDGE('',*,*,#353,.F.);
#482=ORIENTED_EDGE('',*,*,#354,.F.);
#483=ORIENTED_EDGE('',*,*,#355,.F.);
#484=ORIENTED_EDGE('',*,*,#341,.T.);
#485=ORIENTED_EDGE('',*,*,#356,.F.);
#486=ORIENTED_EDGE('',*,*,#343,.F.);
#487=ORIENTED_EDGE('',*,*,#357,.T.);
#488=ORIENTED_EDGE('',*,*,#354,.T.);
#489=ORIENTED_EDGE('',*,*,#358,.F.);
#490=ORIENTED_EDGE('',*,*,#340,.F.);
#491=ORIENTED_EDGE('',*,*,#356,.T.);
#492=ORIENTED_EDGE('',*,*,#312,.T.);
#493=ORIENTED_EDGE('',*,*,#358,.T.);
#494=ORIENTED_EDGE('',*,*,#353,.T.);
#495=ORIENTED_EDGE('',*,*,#350,.T.);
#496=ORIENTED_EDGE('',*,*,#344,.T.);
#497=ORIENTED_EDGE('',*,*,#346,.T.);
#498=ORIENTED_EDGE('',*,*,#355,.T.);
#499=ORIENTED_EDGE('',*,*,#342,.F.);
#500=ORIENTED_EDGE('',*,*,#349,.F.);
#501=ORIENTED_EDGE('',*,*,#352,.T.);
#502=ORIENTED_EDGE('',*,*,#357,.F.);
#503=ORIENTED_EDGE('',*,*,#328,.F.);
#504=ORIENTED_EDGE('',*,*,#348,.F.);
#505=CYLINDRICAL_SURFACE('',#548,1.6);
#506=CYLINDRICAL_SURFACE('',#552,1.6);
#507=CYLINDRICAL_SURFACE('',#556,1.);
#508=CYLINDRICAL_SURFACE('',#561,2.);
#509=CYLINDRICAL_SURFACE('',#565,2.);
#510=CYLINDRICAL_SURFACE('',#570,1.);
#511=CYLINDRICAL_SURFACE('',#586,1.642628512007);
#512=CYLINDRICAL_SURFACE('',#589,3.11149999999801);
#513=ADVANCED_FACE('',(#44),#505,.F.);
#514=ADVANCED_FACE('',(#45),#19,.F.);
#515=ADVANCED_FACE('',(#46),#506,.F.);
#516=ADVANCED_FACE('',(#47),#20,.F.);
#517=ADVANCED_FACE('',(#48),#507,.F.);
#518=ADVANCED_FACE('',(#49),#21,.F.);
#519=ADVANCED_FACE('',(#50,#15),#22,.F.);
#520=ADVANCED_FACE('',(#51),#508,.T.);
#521=ADVANCED_FACE('',(#52),#23,.F.);
#522=ADVANCED_FACE('',(#53),#509,.T.);
#523=ADVANCED_FACE('',(#54),#24,.T.);
#524=ADVANCED_FACE('',(#55,#16),#25,.T.);
#525=ADVANCED_FACE('',(#56),#510,.F.);
#526=ADVANCED_FACE('',(#57),#26,.T.);
#527=ADVANCED_FACE('',(#58),#27,.F.);
#528=ADVANCED_FACE('',(#59),#28,.F.);
#529=ADVANCED_FACE('',(#60),#29,.F.);
#530=ADVANCED_FACE('',(#61),#30,.F.);
#531=ADVANCED_FACE('',(#62),#31,.F.);
#532=ADVANCED_FACE('',(#63),#32,.F.);
#533=ADVANCED_FACE('',(#64),#33,.F.);
#534=ADVANCED_FACE('',(#65),#34,.F.);
#535=ADVANCED_FACE('',(#66),#35,.F.);
#536=ADVANCED_FACE('',(#67),#36,.F.);
#537=ADVANCED_FACE('',(#68),#37,.F.);
#538=ADVANCED_FACE('',(#69),#38,.T.);
#539=ADVANCED_FACE('',(#70),#511,.F.);
#540=ADVANCED_FACE('',(#71),#512,.T.);
#541=ADVANCED_FACE('',(#72),#39,.T.);
#542=ADVANCED_FACE('',(#73),#40,.T.);
#543=ADVANCED_FACE('',(#74),#41,.T.);
#544=ADVANCED_FACE('',(#75,#17),#42,.T.);
#545=ADVANCED_FACE('',(#76,#18),#43,.F.);
#546=CLOSED_SHELL('',(#513,#514,#515,#516,#517,#518,#519,#520,#521,#522,
#523,#524,#525,#526,#527,#528,#529,#530,#531,#532,#533,#534,#535,#536,#537,
#538,#539,#540,#541,#542,#543,#544,#545));
#547=AXIS2_PLACEMENT_3D('',#754,#597,#598);
#548=AXIS2_PLACEMENT_3D('',#755,#599,#600);
#549=AXIS2_PLACEMENT_3D('',#758,#601,#602);
#550=AXIS2_PLACEMENT_3D('',#762,#604,#605);
#551=AXIS2_PLACEMENT_3D('',#764,#607,#608);
#552=AXIS2_PLACEMENT_3D('',#770,#612,#613);
#553=AXIS2_PLACEMENT_3D('',#772,#614,#615);
#554=AXIS2_PLACEMENT_3D('',#774,#616,#617);
#555=AXIS2_PLACEMENT_3D('',#776,#619,#620);
#556=AXIS2_PLACEMENT_3D('',#779,#623,#624);
#557=AXIS2_PLACEMENT_3D('',#782,#625,#626);
#558=AXIS2_PLACEMENT_3D('',#786,#628,#629);
#559=AXIS2_PLACEMENT_3D('',#788,#631,#632);
#560=AXIS2_PLACEMENT_3D('',#794,#636,#637);
#561=AXIS2_PLACEMENT_3D('',#800,#641,#642);
#562=AXIS2_PLACEMENT_3D('',#802,#643,#644);
#563=AXIS2_PLACEMENT_3D('',#804,#645,#646);
#564=AXIS2_PLACEMENT_3D('',#806,#648,#649);
#565=AXIS2_PLACEMENT_3D('',#812,#653,#654);
#566=AXIS2_PLACEMENT_3D('',#815,#655,#656);
#567=AXIS2_PLACEMENT_3D('',#819,#658,#659);
#568=AXIS2_PLACEMENT_3D('',#821,#661,#662);
#569=AXIS2_PLACEMENT_3D('',#827,#666,#667);
#570=AXIS2_PLACEMENT_3D('',#833,#671,#672);
#571=AXIS2_PLACEMENT_3D('',#835,#673,#674);
#572=AXIS2_PLACEMENT_3D('',#838,#676,#677);
#573=AXIS2_PLACEMENT_3D('',#839,#678,#679);
#574=AXIS2_PLACEMENT_3D('',#845,#683,#684);
#575=AXIS2_PLACEMENT_3D('',#848,#687,#688);
#576=AXIS2_PLACEMENT_3D('',#851,#691,#692);
#577=AXIS2_PLACEMENT_3D('',#853,#694,#695);
#578=AXIS2_PLACEMENT_3D('',#855,#697,#698);
#579=AXIS2_PLACEMENT_3D('',#857,#700,#701);
#580=AXIS2_PLACEMENT_3D('',#859,#703,#704);
#581=AXIS2_PLACEMENT_3D('',#860,#705,#706);
#582=AXIS2_PLACEMENT_3D('',#862,#708,#709);
#583=AXIS2_PLACEMENT_3D('',#864,#711,#712);
#584=AXIS2_PLACEMENT_3D('',#866,#714,#715);
#585=AXIS2_PLACEMENT_3D('',#868,#717,#718);
#586=AXIS2_PLACEMENT_3D('',#877,#723,#724);
#587=AXIS2_PLACEMENT_3D('',#879,#725,#726);
#588=AXIS2_PLACEMENT_3D('',#882,#728,#729);
#589=AXIS2_PLACEMENT_3D('',#883,#730,#731);
#590=AXIS2_PLACEMENT_3D('',#885,#732,#733);
#591=AXIS2_PLACEMENT_3D('',#887,#734,#735);
#592=AXIS2_PLACEMENT_3D('',#889,#737,#738);
#593=AXIS2_PLACEMENT_3D('',#895,#742,#743);
#594=AXIS2_PLACEMENT_3D('',#898,#746,#747);
#595=AXIS2_PLACEMENT_3D('',#901,#750,#751);
#596=AXIS2_PLACEMENT_3D('',#902,#752,#753);
#597=DIRECTION('axis',(0.,0.,1.));
#598=DIRECTION('refdir',(1.,0.,0.));
#599=DIRECTION('center_axis',(0.,0.,-1.));
#600=DIRECTION('ref_axis',(-1.,0.,0.));
#601=DIRECTION('center_axis',(0.,3.77351258942769E-15,-1.));
#602=DIRECTION('ref_axis',(-1.,0.,0.));
#603=DIRECTION('',(0.,0.,-1.));
#604=DIRECTION('center_axis',(0.,-3.77351258942769E-15,1.));
#605=DIRECTION('ref_axis',(-1.,0.,0.));
#606=DIRECTION('',(0.,0.,-1.));
#607=DIRECTION('center_axis',(-1.,0.,0.));
#608=DIRECTION('ref_axis',(0.,1.,0.));
#609=DIRECTION('',(0.,1.,3.77351258942769E-15));
#610=DIRECTION('',(0.,-1.,-3.77351258942769E-15));
#611=DIRECTION('',(0.,0.,-1.));
#612=DIRECTION('center_axis',(0.,0.,-1.));
#613=DIRECTION('ref_axis',(1.,0.,0.));
#614=DIRECTION('center_axis',(0.,3.77351258942769E-15,-1.));
#615=DIRECTION('ref_axis',(1.,0.,0.));
#616=DIRECTION('center_axis',(0.,-3.77351258942769E-15,1.));
#617=DIRECTION('ref_axis',(1.,0.,0.));
#618=DIRECTION('',(0.,0.,-1.));
#619=DIRECTION('center_axis',(1.,0.,0.));
#620=DIRECTION('ref_axis',(0.,-1.,0.));
#621=DIRECTION('',(0.,-1.,-3.77351258942769E-15));
#622=DIRECTION('',(0.,1.,3.77351258942769E-15));
#623=DIRECTION('center_axis',(1.,0.,0.));
#624=DIRECTION('ref_axis',(0.,-0.573576436351043,-0.819152044288994));
#625=DIRECTION('center_axis',(1.,0.,0.));
#626=DIRECTION('ref_axis',(0.,-0.573576436351039,-0.819152044288997));
#627=DIRECTION('',(-1.,0.,0.));
#628=DIRECTION('center_axis',(-1.,0.,0.));
#629=DIRECTION('ref_axis',(0.,-0.573576436351039,-0.819152044288997));
#630=DIRECTION('',(1.,0.,0.));
#631=DIRECTION('center_axis',(0.,-0.939692620785902,-0.342020143325685));
#632=DIRECTION('ref_axis',(0.,0.342020143325685,-0.939692620785902));
#633=DIRECTION('',(0.,0.342020143325685,-0.939692620785902));
#634=DIRECTION('',(-1.,0.,0.));
#635=DIRECTION('',(0.,0.342020143325685,-0.939692620785902));
#636=DIRECTION('center_axis',(0.,3.77351258942769E-15,-1.));
#637=DIRECTION('ref_axis',(0.,1.,3.77351258942769E-15));
#638=DIRECTION('',(0.,1.,3.77351258942769E-15));
#639=DIRECTION('',(1.,0.,0.));
#640=DIRECTION('',(0.,1.,3.77351258942769E-15));
#641=DIRECTION('center_axis',(1.,0.,0.));
#642=DIRECTION('ref_axis',(0.,0.573576436351043,0.819152044288994));
#643=DIRECTION('center_axis',(-1.,0.,0.));
#644=DIRECTION('ref_axis',(0.,0.573576436351039,0.819152044288997));
#645=DIRECTION('center_axis',(1.,0.,0.));
#646=DIRECTION('ref_axis',(0.,0.573576436351039,0.819152044288997));
#647=DIRECTION('',(1.,0.,0.));
#648=DIRECTION('center_axis',(0.,0.,-1.));
#649=DIRECTION('ref_axis',(0.,1.,0.));
#650=DIRECTION('',(0.,1.,0.));
#651=DIRECTION('',(-0.999999999999995,-4.37113882867364E-8,8.63564034837719E-8));
#652=DIRECTION('',(0.,1.,0.));
#653=DIRECTION('center_axis',(1.,0.,0.));
#654=DIRECTION('ref_axis',(0.,-0.573576436351043,-0.819152044288994));
#655=DIRECTION('center_axis',(1.,0.,0.));
#656=DIRECTION('ref_axis',(0.,-0.573576436351039,-0.819152044288996));
#657=DIRECTION('',(1.,0.,0.));
#658=DIRECTION('center_axis',(-1.,0.,0.));
#659=DIRECTION('ref_axis',(0.,-0.573576436351039,-0.819152044288996));
#660=DIRECTION('',(-1.,0.,0.));
#661=DIRECTION('center_axis',(0.,-0.939692620785902,-0.342020143325685));
#662=DIRECTION('ref_axis',(0.,0.342020143325685,-0.939692620785902));
#663=DIRECTION('',(0.,0.342020143325685,-0.939692620785902));
#664=DIRECTION('',(-1.,0.,0.));
#665=DIRECTION('',(0.,0.342020143325685,-0.939692620785902));
#666=DIRECTION('center_axis',(0.,3.77351258942769E-15,-1.));
#667=DIRECTION('ref_axis',(0.,1.,3.77351258942769E-15));
#668=DIRECTION('',(0.,1.,3.77351258942769E-15));
#669=DIRECTION('',(1.,0.,0.));
#670=DIRECTION('',(0.,1.,3.77351258942769E-15));
#671=DIRECTION('center_axis',(1.,0.,0.));
#672=DIRECTION('ref_axis',(0.,0.573576436351043,0.819152044288994));
#673=DIRECTION('center_axis',(-1.,0.,0.));
#674=DIRECTION('ref_axis',(0.,0.573576436351039,0.819152044288997));
#675=DIRECTION('',(1.,0.,0.));
#676=DIRECTION('center_axis',(1.,0.,0.));
#677=DIRECTION('ref_axis',(0.,0.573576436351039,0.819152044288997));
#678=DIRECTION('center_axis',(0.,0.,-1.));
#679=DIRECTION('ref_axis',(0.,1.,0.));
#680=DIRECTION('',(0.,1.,0.));
#681=DIRECTION('',(-0.999999999999995,-4.37113882867364E-8,8.63564034837719E-8));
#682=DIRECTION('',(0.,1.,0.));
#683=DIRECTION('center_axis',(-1.,0.,0.));
#684=DIRECTION('ref_axis',(0.,0.,1.));
#685=DIRECTION('',(0.,-1.88675629471385E-15,1.));
#686=DIRECTION('',(0.,0.939692620785902,0.342020143325685));
#687=DIRECTION('center_axis',(1.,0.,0.));
#688=DIRECTION('ref_axis',(0.,0.,-1.));
#689=DIRECTION('',(0.,0.939692620785902,0.342020143325685));
#690=DIRECTION('',(0.,-1.88675629471385E-15,1.));
#691=DIRECTION('center_axis',(1.,0.,0.));
#692=DIRECTION('ref_axis',(0.,0.,-1.));
#693=DIRECTION('',(0.,0.939692620785902,0.342020143325688));
#694=DIRECTION('center_axis',(-1.,0.,0.));
#695=DIRECTION('ref_axis',(0.,0.,1.));
#696=DIRECTION('',(0.,0.939692620785902,0.342020143325688));
#697=DIRECTION('center_axis',(-1.,0.,0.));
#698=DIRECTION('ref_axis',(0.,0.,1.));
#699=DIRECTION('',(0.,-3.77351258942769E-15,1.));
#700=DIRECTION('center_axis',(0.,-1.,-3.77351258942769E-15));
#701=DIRECTION('ref_axis',(0.,3.77351258942769E-15,-1.));
#702=DIRECTION('',(0.,-3.77351258942769E-15,1.));
#703=DIRECTION('center_axis',(1.,0.,0.));
#704=DIRECTION('ref_axis',(0.,0.,-1.));
#705=DIRECTION('center_axis',(-1.,0.,0.));
#706=DIRECTION('ref_axis',(0.,0.,1.));
#707=DIRECTION('',(0.,0.,1.));
#708=DIRECTION('center_axis',(1.,0.,0.));
#709=DIRECTION('ref_axis',(0.,0.,-1.));
#710=DIRECTION('',(0.,0.,1.));
#711=DIRECTION('center_axis',(1.,0.,0.));
#712=DIRECTION('ref_axis',(0.,0.,-1.));
#713=DIRECTION('',(8.6356406470145E-8,0.,0.999999999999996));
#714=DIRECTION('center_axis',(-1.,0.,0.));
#715=DIRECTION('ref_axis',(0.,0.,1.));
#716=DIRECTION('',(8.6356406470145E-8,0.,0.999999999999996));
#717=DIRECTION('center_axis',(0.866025425639685,-0.499999962145595,-7.47868398240958E-8));
#718=DIRECTION('ref_axis',(0.499999962145593,0.866025425639689,-4.31782017419523E-8));
#719=DIRECTION('',(0.499999962145593,0.866025425639689,-4.31782017419523E-8));
#720=DIRECTION('',(8.63564020292529E-8,0.,0.999999999999996));
#721=DIRECTION('',(0.499999962145593,0.866025425639688,-4.31782017419523E-8));
#722=DIRECTION('',(8.63564020292529E-8,0.,0.999999999999996));
#723=DIRECTION('center_axis',(8.6356406470145E-8,0.,0.999999999999996));
#724=DIRECTION('ref_axis',(-4.37113882867362E-8,0.999999999999999,3.77475841426374E-15));
#725=DIRECTION('center_axis',(-8.63564034837718E-8,-3.77475828372524E-15,
-0.999999999999996));
#726=DIRECTION('ref_axis',(-4.37113882867365E-8,0.999999999999999,-1.14511632857382E-30));
#727=DIRECTION('',(-8.6356406470145E-8,0.,-0.999999999999996));
#728=DIRECTION('center_axis',(-8.63564034837718E-8,-3.77475828372524E-15,
-0.999999999999996));
#729=DIRECTION('ref_axis',(-4.37113882867365E-8,0.999999999999999,-1.14511632857382E-30));
#730=DIRECTION('center_axis',(8.6356406470145E-8,0.,0.999999999999996));
#731=DIRECTION('ref_axis',(4.37113908288068E-8,-0.999999999999999,-3.77475863378782E-15));
#732=DIRECTION('center_axis',(8.63564034837718E-8,3.77475828372524E-15,
0.999999999999996));
#733=DIRECTION('ref_axis',(-4.37113882867365E-8,0.999999999999999,-4.19878878293893E-31));
#734=DIRECTION('center_axis',(8.63564034837718E-8,3.77475828372524E-15,
0.999999999999996));
#735=DIRECTION('ref_axis',(-4.37113882867365E-8,0.999999999999999,-4.19878878293893E-31));
#736=DIRECTION('',(8.6356406470145E-8,0.,0.999999999999996));
#737=DIRECTION('center_axis',(-0.866025381928297,-0.50000003785594,7.47868398952628E-8));
#738=DIRECTION('ref_axis',(0.500000037855938,-0.8660253819283,-4.31782017419523E-8));
#739=DIRECTION('',(-0.500000037855938,0.8660253819283,4.31782017419523E-8));
#740=DIRECTION('',(0.500000037855939,-0.8660253819283,-4.31782017419523E-8));
#741=DIRECTION('',(8.6356406470145E-8,0.,0.999999999999996));
#742=DIRECTION('center_axis',(0.999999999999995,4.37113882867364E-8,-8.63564064701449E-8));
#743=DIRECTION('ref_axis',(-4.37113882867365E-8,0.999999999999999,6.92569712248373E-32));
#744=DIRECTION('',(4.37113882867364E-8,-0.999999999999999,-1.34492736874562E-15));
#745=DIRECTION('',(-4.37113882867364E-8,0.999999999999999,1.34492736874562E-15));
#746=DIRECTION('center_axis',(-0.999999999999995,-4.37113882867364E-8,8.63564064701449E-8));
#747=DIRECTION('ref_axis',(4.37113882867365E-8,-0.999999999999999,-5.54912638530908E-32));
#748=DIRECTION('',(4.37113882867365E-8,-0.999999999999999,-5.54912638530908E-32));
#749=DIRECTION('',(4.37113882867365E-8,-0.999999999999999,-5.54912638530908E-32));
#750=DIRECTION('center_axis',(8.63564034837718E-8,3.77475828372524E-15,
0.999999999999996));
#751=DIRECTION('ref_axis',(-4.37113882867365E-8,0.999999999999999,-4.12894898621883E-31));
#752=DIRECTION('center_axis',(8.63564034837718E-8,3.77475828372524E-15,
0.999999999999996));
#753=DIRECTION('ref_axis',(-4.37113882867365E-8,0.999999999999999,-4.12894898621883E-31));
#754=CARTESIAN_POINT('',(0.,0.,0.));
#755=CARTESIAN_POINT('Origin',(39.7030101940901,148.363117202429,0.999996571391276));
#756=CARTESIAN_POINT('',(41.3030101940901,148.363117202429,0.999996571391276));
#757=CARTESIAN_POINT('',(38.1030101940901,148.363117202429,0.999996571391276));
#758=CARTESIAN_POINT('Origin',(39.7030101940901,148.363117202429,0.999996571391258));
#759=CARTESIAN_POINT('',(41.3030101940901,148.363117202429,-3.42860872387662E-6));
#760=CARTESIAN_POINT('',(41.3030101940901,148.363117202429,0.999996571391276));
#761=CARTESIAN_POINT('',(38.1030101940901,148.363117202429,-3.42860872387662E-6));
#762=CARTESIAN_POINT('Origin',(39.7030101940901,148.363117202429,-3.42860874164019E-6));
#763=CARTESIAN_POINT('',(38.1030101940901,148.363117202429,0.999996571391276));
#764=CARTESIAN_POINT('Origin',(38.1030101940901,148.363117202429,0.999996571391276));
#765=CARTESIAN_POINT('',(38.1030101940901,149.663117202429,0.999996571391276));
#766=CARTESIAN_POINT('',(38.1030101940901,146.338013433324,0.999996571391266));
#767=CARTESIAN_POINT('',(38.1030101940901,149.663117202429,-3.42860872387662E-6));
#768=CARTESIAN_POINT('',(38.1030101940901,146.663013433324,-3.42860873275841E-6));
#769=CARTESIAN_POINT('',(38.1030101940901,149.663117202429,0.999996571391276));
#770=CARTESIAN_POINT('Origin',(39.7030101940901,149.663117202429,0.999996571391276));
#771=CARTESIAN_POINT('',(41.3030101940901,149.663117202429,0.999996571391276));
#772=CARTESIAN_POINT('Origin',(39.7030101940901,149.663117202429,0.999996571391258));
#773=CARTESIAN_POINT('',(41.3030101940901,149.663117202429,-3.42860872387662E-6));
#774=CARTESIAN_POINT('Origin',(39.7030101940901,149.663117202429,-3.42860874164019E-6));
#775=CARTESIAN_POINT('',(41.3030101940901,149.663117202429,0.999996571391276));
#776=CARTESIAN_POINT('Origin',(41.3030101940901,149.663117202429,0.999996571391276));
#777=CARTESIAN_POINT('',(41.3030101940901,146.988013433324,0.999996571391269));
#778=CARTESIAN_POINT('',(41.3030101940901,146.988013433324,-3.4286087315788E-6));
#779=CARTESIAN_POINT('Origin',(36.7030101940901,145.713324740639,1.99999657139126));
#780=CARTESIAN_POINT('',(42.7030101940901,144.773632119853,1.65797642806558));
#781=CARTESIAN_POINT('',(42.7030101940901,145.713324740639,0.999996571391264));
#782=CARTESIAN_POINT('Origin',(42.7030101940901,145.713324740639,1.99999657139126));
#783=CARTESIAN_POINT('',(36.7030101940901,145.713324740639,0.999996571391264));
#784=CARTESIAN_POINT('',(36.7030101940901,145.713324740639,0.999996571391264));
#785=CARTESIAN_POINT('',(36.7030101940901,144.773632119853,1.65797642806558));
#786=CARTESIAN_POINT('Origin',(36.7030101940901,145.713324740639,1.99999657139126));
#787=CARTESIAN_POINT('',(36.7030101940901,144.773632119853,1.65797642806558));
#788=CARTESIAN_POINT('Origin',(36.7030101940901,143.232152469397,5.89315696024267));
#789=CARTESIAN_POINT('',(36.7030101940901,143.471637551973,5.23517710356836));
#790=CARTESIAN_POINT('',(36.7030101940901,143.232152469397,5.89315696024267));
#791=CARTESIAN_POINT('',(42.7030101940901,143.471637551973,5.23517710356836));
#792=CARTESIAN_POINT('',(36.7030101940901,143.471637551973,5.23517710356835));
#793=CARTESIAN_POINT('',(42.7030101940901,143.232152469397,5.89315696024267));
#794=CARTESIAN_POINT('Origin',(36.7030101940901,144.312909664219,0.999996571391258));
#795=CARTESIAN_POINT('',(42.7030101940901,152.312909664219,0.999996571391289));
#796=CARTESIAN_POINT('',(42.7030101940901,144.312909664219,0.999996571391258));
#797=CARTESIAN_POINT('',(36.7030101940901,152.312909664219,0.999996571391289));
#798=CARTESIAN_POINT('',(36.7030101940901,152.312909664219,0.999996571391289));
#799=CARTESIAN_POINT('',(36.7030101940901,144.312909664219,0.999996571391258));
#800=CARTESIAN_POINT('Origin',(36.7030101940901,141.592252310401,4.55113681691698));
#801=CARTESIAN_POINT('',(42.7030101940901,141.592252310401,6.55113681691698));
#802=CARTESIAN_POINT('Origin',(42.7030101940901,141.592252310401,4.55113681691698));
#803=CARTESIAN_POINT('',(36.7030101940901,141.592252310401,6.55113681691698));
#804=CARTESIAN_POINT('Origin',(36.7030101940901,141.592252310401,4.55113681691698));
#805=CARTESIAN_POINT('',(36.7030101940901,141.592252310401,6.55113681691698));
#806=CARTESIAN_POINT('Origin',(36.7030101940901,141.292459848611,6.55113681691698));
#807=CARTESIAN_POINT('',(36.7030045837331,141.292459717477,6.5511370759862));
#808=CARTESIAN_POINT('',(36.7030101940901,141.292459848611,6.55113681691698));
#809=CARTESIAN_POINT('',(42.7030045837331,141.292459979745,6.55113655784778));
#810=CARTESIAN_POINT('',(43.4279273418577,141.292460011432,6.55113649524606));
#811=CARTESIAN_POINT('',(42.7030101940901,141.292459848611,6.55113681691698));
#812=CARTESIAN_POINT('Origin',(36.7030101940901,145.713324740639,1.99999657139126));
#813=CARTESIAN_POINT('',(42.7030101940901,143.833939499067,1.31595628473989));
#814=CARTESIAN_POINT('',(42.7030101940901,145.713324740639,-3.42860873636814E-6));
#815=CARTESIAN_POINT('Origin',(42.7030101940901,145.713324740639,1.99999657139126));
#816=CARTESIAN_POINT('',(36.7030101940901,143.833939499067,1.31595628473989));
#817=CARTESIAN_POINT('',(36.7030101940901,143.833939499067,1.31595628473989));
#818=CARTESIAN_POINT('',(36.7030101940901,145.713324740639,-3.42860873636814E-6));
#819=CARTESIAN_POINT('Origin',(36.7030101940901,145.713324740639,1.99999657139126));
#820=CARTESIAN_POINT('',(36.7030101940901,145.713324740639,-3.42860873636663E-6));
#821=CARTESIAN_POINT('Origin',(36.7030101940901,142.292459848611,5.55113681691698));
#822=CARTESIAN_POINT('',(42.7030101940901,142.531944931187,4.89315696024267));
#823=CARTESIAN_POINT('',(42.7030101940901,142.292459848611,5.55113681691698));
#824=CARTESIAN_POINT('',(36.7030101940901,142.531944931187,4.89315696024267));
#825=CARTESIAN_POINT('',(36.7030101940901,142.531944931187,4.89315696024267));
#826=CARTESIAN_POINT('',(36.7030101940901,142.292459848611,5.55113681691698));
#827=CARTESIAN_POINT('Origin',(36.7030101940901,144.312909664219,-3.42860874165263E-6));
#828=CARTESIAN_POINT('',(36.7030101940901,152.312909664219,-3.42860871146453E-6));
#829=CARTESIAN_POINT('',(36.7030101940901,144.312909664219,-3.42860874165263E-6));
#830=CARTESIAN_POINT('',(42.7030101940901,152.312909664219,-3.42860871138662E-6));
#831=CARTESIAN_POINT('',(36.7030101940901,152.312909664219,-3.42860871146453E-6));
#832=CARTESIAN_POINT('',(42.7030101940901,144.312909664219,-3.42860874165263E-6));
#833=CARTESIAN_POINT('Origin',(36.7030101940901,141.592252310401,4.55113681691698));
#834=CARTESIAN_POINT('',(42.7030101940901,141.592252310401,5.55113681691698));
#835=CARTESIAN_POINT('Origin',(42.7030101940901,141.592252310401,4.55113681691698));
#836=CARTESIAN_POINT('',(36.7030101940901,141.592252310401,5.55113681691698));
#837=CARTESIAN_POINT('',(36.7030101940901,141.592252310401,5.55113681691698));
#838=CARTESIAN_POINT('Origin',(36.7030101940901,141.592252310401,4.55113681691698));
#839=CARTESIAN_POINT('Origin',(36.7030101940901,141.292459848611,5.55113681691698));
#840=CARTESIAN_POINT('',(42.7030044973767,141.292459979745,5.55113655784778));
#841=CARTESIAN_POINT('',(42.7030101940901,141.292459848611,5.55113681691698));
#842=CARTESIAN_POINT('',(36.7030044973767,141.292459717477,5.5511370759862));
#843=CARTESIAN_POINT('',(43.4279272555013,141.292460011432,5.55113649524606));
#844=CARTESIAN_POINT('',(36.7030101940901,141.292459848611,5.55113681691698));
#845=CARTESIAN_POINT('Origin',(42.7030101940901,144.566171867937,0.361692482813269));
#846=CARTESIAN_POINT('',(42.7030101940901,145.713324740639,-3.42860873636814E-6));
#847=CARTESIAN_POINT('',(42.7030101940901,143.833939499067,1.31595628473989));
#848=CARTESIAN_POINT('Origin',(36.7030101940901,144.566171867937,0.361692482813269));
#849=CARTESIAN_POINT('',(36.7030101940901,143.833939499067,1.31595628473989));
#850=CARTESIAN_POINT('',(36.7030101940901,145.713324740639,-3.42860873636814E-6));
#851=CARTESIAN_POINT('Origin',(36.7030101940901,143.182942215127,3.10455662249128));
#852=CARTESIAN_POINT('',(36.7030101940901,142.531944931187,4.89315696024267));
#853=CARTESIAN_POINT('Origin',(42.7030101940901,143.182942215127,3.10455662249128));
#854=CARTESIAN_POINT('',(42.7030101940901,142.531944931187,4.89315696024267));
#855=CARTESIAN_POINT('Origin',(42.7030101940901,149.013117202429,-3.42860872391633E-6));
#856=CARTESIAN_POINT('',(42.7030101940901,152.312909664219,-3.42860871138662E-6));
#857=CARTESIAN_POINT('Origin',(39.7030101940901,152.312909664219,-3.42860871146453E-6));
#858=CARTESIAN_POINT('',(36.7030101940901,152.312909664219,-3.42860871146453E-6));
#859=CARTESIAN_POINT('Origin',(36.7030101940901,149.013117202429,-3.42860872391633E-6));
#860=CARTESIAN_POINT('Origin',(42.7030101940901,142.165828746752,5.37028886120598));
#861=CARTESIAN_POINT('',(42.7030101940901,141.592252310401,5.55113681691698));
#862=CARTESIAN_POINT('Origin',(36.7030101940901,142.165828746752,5.37028886120598));
#863=CARTESIAN_POINT('',(36.7030101940901,141.592252310401,5.55113681691698));
#864=CARTESIAN_POINT('Origin',(36.7030101940901,141.442356079506,5.55113681691698));
#865=CARTESIAN_POINT('',(36.7030044973767,141.292459717477,5.5511370759862));
#866=CARTESIAN_POINT('Origin',(42.7030101940901,141.442356079506,5.55113681691698));
#867=CARTESIAN_POINT('',(42.7030044973767,141.292459979745,5.55113655784778));
#868=CARTESIAN_POINT('Origin',(41.9178992718323,135.675345764688,5.55113662564667));
#869=CARTESIAN_POINT('',(41.9178992718324,135.675345764688,5.55113662564667));
#870=CARTESIAN_POINT('',(42.703004683468,137.035188364208,5.55113655784778));
#871=CARTESIAN_POINT('',(41.3831757734252,134.749177403954,5.55113667182347));
#872=CARTESIAN_POINT('',(42.7030047698244,137.035188364208,6.55113655784778));
#873=CARTESIAN_POINT('',(42.703004683468,137.035188364208,5.55113655784778));
#874=CARTESIAN_POINT('',(41.9178993581888,135.675345764688,6.55113662564666));
#875=CARTESIAN_POINT('',(41.3831758597816,134.749177403954,6.55113667182346));
#876=CARTESIAN_POINT('',(41.9178992718324,135.675345764688,5.55113662564667));
#877=CARTESIAN_POINT('Origin',(39.7030046473847,137.860677330511,5.55113681691699));
#878=CARTESIAN_POINT('',(39.7030048055427,136.218048818504,6.55113681691699));
#879=CARTESIAN_POINT('Origin',(39.7030047337411,137.860677330511,6.55113681691699));
#880=CARTESIAN_POINT('',(39.7030047191863,136.218048818504,5.55113681691698));
#881=CARTESIAN_POINT('',(39.7030047191863,136.218048818504,5.55113681691699));
#882=CARTESIAN_POINT('Origin',(39.7030046473847,137.860677330511,5.55113681691699));
#883=CARTESIAN_POINT('Origin',(39.7030046473847,137.860677330511,5.55113681691699));
#884=CARTESIAN_POINT('',(37.4881102139848,135.675345571056,5.55113700818732));
#885=CARTESIAN_POINT('Origin',(39.7030046473847,137.860677330511,5.55113681691699));
#886=CARTESIAN_POINT('',(37.4881103003412,135.675345571056,6.55113700818731));
#887=CARTESIAN_POINT('Origin',(39.7030047337411,137.860677330511,6.55113681691699));
#888=CARTESIAN_POINT('',(37.4881102139848,135.675345571056,5.55113700818732));
#889=CARTESIAN_POINT('Origin',(36.703004683468,137.035188101939,5.5511370759862));
#890=CARTESIAN_POINT('',(36.703004683468,137.035188101939,5.5511370759862));
#891=CARTESIAN_POINT('',(38.0228337933602,134.749177257069,5.55113696201052));
#892=CARTESIAN_POINT('',(36.7030047698244,137.035188101939,6.5511370759862));
#893=CARTESIAN_POINT('',(38.0228338797166,134.749177257069,6.55113696201051));
#894=CARTESIAN_POINT('',(36.703004683468,137.035188101939,5.5511370759862));
#895=CARTESIAN_POINT('Origin',(42.7030046113014,138.686166559082,5.55113655784778));
#896=CARTESIAN_POINT('',(42.7030046473847,137.860677461645,5.55113655784778));
#897=CARTESIAN_POINT('',(42.7030047337411,137.860677461645,6.55113655784778));
#898=CARTESIAN_POINT('Origin',(36.7030044973767,141.292459717477,5.5511370759862));
#899=CARTESIAN_POINT('',(36.7030044973767,141.292459717477,5.5511370759862));
#900=CARTESIAN_POINT('',(36.7030045837332,141.292459717477,6.5511370759862));
#901=CARTESIAN_POINT('Origin',(39.7030046406955,139.989313138279,6.55113681691699));
#902=CARTESIAN_POINT('Origin',(39.7030045543391,139.989313138279,5.55113681691699));
#903=UNCERTAINTY_MEASURE_WITH_UNIT(LENGTH_MEASURE(0.01),#907,
'DISTANCE_ACCURACY_VALUE',
'Maximum model space distance between geometric entities at asserted c
onnectivities');
#904=UNCERTAINTY_MEASURE_WITH_UNIT(LENGTH_MEASURE(0.01),#907,
'DISTANCE_ACCURACY_VALUE',
'Maximum model space distance between geometric entities at asserted c
onnectivities');
#905=(
GEOMETRIC_REPRESENTATION_CONTEXT(3)
GLOBAL_UNCERTAINTY_ASSIGNED_CONTEXT((#903))
GLOBAL_UNIT_ASSIGNED_CONTEXT((#907,#908,#909))
REPRESENTATION_CONTEXT('','3D')
);
#906=(
GEOMETRIC_REPRESENTATION_CONTEXT(3)
GLOBAL_UNCERTAINTY_ASSIGNED_CONTEXT((#904))
GLOBAL_UNIT_ASSIGNED_CONTEXT((#907,#908,#909))
REPRESENTATION_CONTEXT('','3D')
);
#907=(
LENGTH_UNIT()
NAMED_UNIT(*)
SI_UNIT(.MILLI.,.METRE.)
);
#908=(
NAMED_UNIT(*)
PLANE_ANGLE_UNIT()
SI_UNIT($,.RADIAN.)
);
#909=(
NAMED_UNIT(*)
SI_UNIT($,.STERADIAN.)
SOLID_ANGLE_UNIT()
);
#910=SHAPE_DEFINITION_REPRESENTATION(#911,#912);
#911=PRODUCT_DEFINITION_SHAPE('',$,#914);
#912=SHAPE_REPRESENTATION('',(#547),#905);
#913=PRODUCT_DEFINITION_CONTEXT('part definition',#918,'design');
#914=PRODUCT_DEFINITION('PCB','board v13',#915,#913);
#915=PRODUCT_DEFINITION_FORMATION('',$,#920);
#916=PRODUCT_RELATED_PRODUCT_CATEGORY('board v13','board v13',(#920));
#917=APPLICATION_PROTOCOL_DEFINITION('international standard',
'automotive_design',2009,#918);
#918=APPLICATION_CONTEXT(
'Core Data for Automotive Mechanical Design Process');
#919=PRODUCT_CONTEXT('part definition',#918,'mechanical');
#920=PRODUCT('PCB','board v13','Open CASCADE Model',(#919));
#921=PRESENTATION_STYLE_ASSIGNMENT((#922));
#922=SURFACE_STYLE_USAGE(.BOTH.,#923);
#923=SURFACE_SIDE_STYLE('',(#924));
#924=SURFACE_STYLE_FILL_AREA(#925);
#925=FILL_AREA_STYLE('Steel - Satin',(#926));
#926=FILL_AREA_STYLE_COLOUR('Steel - Satin',#927);
#927=COLOUR_RGB('Steel - Satin',0.627450980392157,0.627450980392157,0.627450980392157);
ENDSEC;
END-ISO-10303-21;
