ISO-10303-21;
HEADER;
/* Generated by software containing ST-Developer
 * from STEP Tools, Inc. (www.steptools.com) 
 */

FILE_DESCRIPTION(
/* description */ (''),
/* implementation_level */ '2;1');

FILE_NAME(
/* name */ 'qs8s_mirrored_b.step',
/* time_stamp */ '2026-01-08T13:54:45+02:00',
/* author */ (''),
/* organization */ (''),
/* preprocessor_version */ 'ST-DEVELOPER v20.1',
/* originating_system */ 'Autodesk Translation Framework v14.21.0.0',
/* authorisation */ '');

FILE_SCHEMA (('AUTOMOTIVE_DESIGN { 1 0 10303 214 3 1 1 }'));
ENDSEC;

DATA;
#10=MECHANICAL_DESIGN_GEOMETRIC_PRESENTATION_REPRESENTATION('',(#13),#356);
#11=SHAPE_REPRESENTATION_RELATIONSHIP('SRR','None',#363,#12);
#12=ADVANCED_BREP_SHAPE_REPRESENTATION('',(#14),#355);
#13=STYLED_ITEM('',(#372),#14);
#14=MANIFOLD_SOLID_BREP('Body8',#212);
#15=CYLINDRICAL_SURFACE('',#228,0.21);
#16=CYLINDRICAL_SURFACE('',#237,0.5);
#17=FACE_BOUND('',#35,.T.);
#18=FACE_BOUND('',#42,.T.);
#19=CIRCLE('',#227,0.21);
#20=CIRCLE('',#229,0.21);
#21=CIRCLE('',#233,0.5);
#22=CIRCLE('',#238,0.5);
#23=FACE_OUTER_BOUND('',#34,.T.);
#24=FACE_OUTER_BOUND('',#36,.T.);
#25=FACE_OUTER_BOUND('',#37,.T.);
#26=FACE_OUTER_BOUND('',#38,.T.);
#27=FACE_OUTER_BOUND('',#39,.T.);
#28=FACE_OUTER_BOUND('',#40,.T.);
#29=FACE_OUTER_BOUND('',#41,.T.);
#30=FACE_OUTER_BOUND('',#43,.T.);
#31=FACE_OUTER_BOUND('',#44,.T.);
#32=FACE_OUTER_BOUND('',#45,.T.);
#33=FACE_OUTER_BOUND('',#46,.T.);
#34=EDGE_LOOP('',(#138,#139,#140,#141));
#35=EDGE_LOOP('',(#142));
#36=EDGE_LOOP('',(#143,#144,#145,#146));
#37=EDGE_LOOP('',(#147,#148,#149,#150));
#38=EDGE_LOOP('',(#151,#152,#153,#154));
#39=EDGE_LOOP('',(#155,#156,#157,#158));
#40=EDGE_LOOP('',(#159,#160,#161,#162));
#41=EDGE_LOOP('',(#163,#164,#165,#166,#167,#168,#169,#170));
#42=EDGE_LOOP('',(#171));
#43=EDGE_LOOP('',(#172,#173,#174,#175));
#44=EDGE_LOOP('',(#176,#177,#178,#179));
#45=EDGE_LOOP('',(#180,#181,#182,#183));
#46=EDGE_LOOP('',(#184,#185,#186,#187,#188,#189,#190,#191));
#47=LINE('',#300,#70);
#48=LINE('',#302,#71);
#49=LINE('',#304,#72);
#50=LINE('',#305,#73);
#51=LINE('',#311,#74);
#52=LINE('',#315,#75);
#53=LINE('',#316,#76);
#54=LINE('',#317,#77);
#55=LINE('',#320,#78);
#56=LINE('',#321,#79);
#57=LINE('',#325,#80);
#58=LINE('',#327,#81);
#59=LINE('',#329,#82);
#60=LINE('',#333,#83);
#61=LINE('',#335,#84);
#62=LINE('',#336,#85);
#63=LINE('',#339,#86);
#64=LINE('',#341,#87);
#65=LINE('',#342,#88);
#66=LINE('',#343,#89);
#67=LINE('',#346,#90);
#68=LINE('',#347,#91);
#69=LINE('',#351,#92);
#70=VECTOR('',#245,1.);
#71=VECTOR('',#246,1.);
#72=VECTOR('',#247,1.);
#73=VECTOR('',#248,1.);
#74=VECTOR('',#255,0.21);
#75=VECTOR('',#258,1.);
#76=VECTOR('',#259,1.);
#77=VECTOR('',#260,1.);
#78=VECTOR('',#263,1.);
#79=VECTOR('',#264,1.);
#80=VECTOR('',#267,1.);
#81=VECTOR('',#268,1.);
#82=VECTOR('',#269,1.);
#83=VECTOR('',#274,1.);
#84=VECTOR('',#275,1.);
#85=VECTOR('',#276,1.);
#86=VECTOR('',#279,1.);
#87=VECTOR('',#280,1.);
#88=VECTOR('',#281,1.);
#89=VECTOR('',#282,1.);
#90=VECTOR('',#285,1.);
#91=VECTOR('',#286,1.);
#92=VECTOR('',#293,1.);
#93=VERTEX_POINT('',#298);
#94=VERTEX_POINT('',#299);
#95=VERTEX_POINT('',#301);
#96=VERTEX_POINT('',#303);
#97=VERTEX_POINT('',#306);
#98=VERTEX_POINT('',#309);
#99=VERTEX_POINT('',#313);
#100=VERTEX_POINT('',#314);
#101=VERTEX_POINT('',#319);
#102=VERTEX_POINT('',#323);
#103=VERTEX_POINT('',#324);
#104=VERTEX_POINT('',#326);
#105=VERTEX_POINT('',#328);
#106=VERTEX_POINT('',#332);
#107=VERTEX_POINT('',#334);
#108=VERTEX_POINT('',#338);
#109=VERTEX_POINT('',#340);
#110=VERTEX_POINT('',#345);
#111=EDGE_CURVE('',#93,#94,#47,.T.);
#112=EDGE_CURVE('',#93,#95,#48,.T.);
#113=EDGE_CURVE('',#95,#96,#49,.T.);
#114=EDGE_CURVE('',#94,#96,#50,.T.);
#115=EDGE_CURVE('',#97,#97,#19,.T.);
#116=EDGE_CURVE('',#98,#98,#20,.T.);
#117=EDGE_CURVE('',#98,#97,#51,.T.);
#118=EDGE_CURVE('',#99,#100,#52,.T.);
#119=EDGE_CURVE('',#99,#94,#53,.T.);
#120=EDGE_CURVE('',#100,#96,#54,.T.);
#121=EDGE_CURVE('',#99,#101,#55,.T.);
#122=EDGE_CURVE('',#101,#93,#56,.T.);
#123=EDGE_CURVE('',#102,#103,#57,.T.);
#124=EDGE_CURVE('',#104,#103,#58,.T.);
#125=EDGE_CURVE('',#104,#105,#59,.T.);
#126=EDGE_CURVE('',#105,#102,#21,.T.);
#127=EDGE_CURVE('',#106,#102,#60,.T.);
#128=EDGE_CURVE('',#106,#107,#61,.T.);
#129=EDGE_CURVE('',#107,#103,#62,.T.);
#130=EDGE_CURVE('',#108,#100,#63,.T.);
#131=EDGE_CURVE('',#108,#109,#64,.T.);
#132=EDGE_CURVE('',#109,#104,#65,.T.);
#133=EDGE_CURVE('',#107,#101,#66,.T.);
#134=EDGE_CURVE('',#110,#109,#67,.T.);
#135=EDGE_CURVE('',#110,#105,#68,.T.);
#136=EDGE_CURVE('',#106,#110,#22,.T.);
#137=EDGE_CURVE('',#95,#108,#69,.T.);
#138=ORIENTED_EDGE('',*,*,#111,.F.);
#139=ORIENTED_EDGE('',*,*,#112,.T.);
#140=ORIENTED_EDGE('',*,*,#113,.T.);
#141=ORIENTED_EDGE('',*,*,#114,.F.);
#142=ORIENTED_EDGE('',*,*,#115,.F.);
#143=ORIENTED_EDGE('',*,*,#116,.T.);
#144=ORIENTED_EDGE('',*,*,#117,.T.);
#145=ORIENTED_EDGE('',*,*,#115,.T.);
#146=ORIENTED_EDGE('',*,*,#117,.F.);
#147=ORIENTED_EDGE('',*,*,#118,.F.);
#148=ORIENTED_EDGE('',*,*,#119,.T.);
#149=ORIENTED_EDGE('',*,*,#114,.T.);
#150=ORIENTED_EDGE('',*,*,#120,.F.);
#151=ORIENTED_EDGE('',*,*,#121,.T.);
#152=ORIENTED_EDGE('',*,*,#122,.T.);
#153=ORIENTED_EDGE('',*,*,#111,.T.);
#154=ORIENTED_EDGE('',*,*,#119,.F.);
#155=ORIENTED_EDGE('',*,*,#123,.T.);
#156=ORIENTED_EDGE('',*,*,#124,.F.);
#157=ORIENTED_EDGE('',*,*,#125,.T.);
#158=ORIENTED_EDGE('',*,*,#126,.T.);
#159=ORIENTED_EDGE('',*,*,#123,.F.);
#160=ORIENTED_EDGE('',*,*,#127,.F.);
#161=ORIENTED_EDGE('',*,*,#128,.T.);
#162=ORIENTED_EDGE('',*,*,#129,.T.);
#163=ORIENTED_EDGE('',*,*,#121,.F.);
#164=ORIENTED_EDGE('',*,*,#118,.T.);
#165=ORIENTED_EDGE('',*,*,#130,.F.);
#166=ORIENTED_EDGE('',*,*,#131,.T.);
#167=ORIENTED_EDGE('',*,*,#132,.T.);
#168=ORIENTED_EDGE('',*,*,#124,.T.);
#169=ORIENTED_EDGE('',*,*,#129,.F.);
#170=ORIENTED_EDGE('',*,*,#133,.T.);
#171=ORIENTED_EDGE('',*,*,#116,.F.);
#172=ORIENTED_EDGE('',*,*,#125,.F.);
#173=ORIENTED_EDGE('',*,*,#132,.F.);
#174=ORIENTED_EDGE('',*,*,#134,.F.);
#175=ORIENTED_EDGE('',*,*,#135,.T.);
#176=ORIENTED_EDGE('',*,*,#126,.F.);
#177=ORIENTED_EDGE('',*,*,#135,.F.);
#178=ORIENTED_EDGE('',*,*,#136,.F.);
#179=ORIENTED_EDGE('',*,*,#127,.T.);
#180=ORIENTED_EDGE('',*,*,#137,.T.);
#181=ORIENTED_EDGE('',*,*,#130,.T.);
#182=ORIENTED_EDGE('',*,*,#120,.T.);
#183=ORIENTED_EDGE('',*,*,#113,.F.);
#184=ORIENTED_EDGE('',*,*,#122,.F.);
#185=ORIENTED_EDGE('',*,*,#133,.F.);
#186=ORIENTED_EDGE('',*,*,#128,.F.);
#187=ORIENTED_EDGE('',*,*,#136,.T.);
#188=ORIENTED_EDGE('',*,*,#134,.T.);
#189=ORIENTED_EDGE('',*,*,#131,.F.);
#190=ORIENTED_EDGE('',*,*,#137,.F.);
#191=ORIENTED_EDGE('',*,*,#112,.F.);
#192=PLANE('',#226);
#193=PLANE('',#230);
#194=PLANE('',#231);
#195=PLANE('',#232);
#196=PLANE('',#234);
#197=PLANE('',#235);
#198=PLANE('',#236);
#199=PLANE('',#239);
#200=PLANE('',#240);
#201=ADVANCED_FACE('',(#23,#17),#192,.F.);
#202=ADVANCED_FACE('',(#24),#15,.F.);
#203=ADVANCED_FACE('',(#25),#193,.F.);
#204=ADVANCED_FACE('',(#26),#194,.F.);
#205=ADVANCED_FACE('',(#27),#195,.T.);
#206=ADVANCED_FACE('',(#28),#196,.F.);
#207=ADVANCED_FACE('',(#29,#18),#197,.F.);
#208=ADVANCED_FACE('',(#30),#198,.F.);
#209=ADVANCED_FACE('',(#31),#16,.F.);
#210=ADVANCED_FACE('',(#32),#199,.F.);
#211=ADVANCED_FACE('',(#33),#200,.F.);
#212=CLOSED_SHELL('',(#201,#202,#203,#204,#205,#206,#207,#208,#209,#210,
#211));
#213=DERIVED_UNIT_ELEMENT(#215,1.);
#214=DERIVED_UNIT_ELEMENT(#358,-3.);
#215=(
MASS_UNIT()
NAMED_UNIT(*)
SI_UNIT(.KILO.,.GRAM.)
);
#216=DERIVED_UNIT((#213,#214));
#217=MEASURE_REPRESENTATION_ITEM('density measure',
POSITIVE_RATIO_MEASURE(1120.),#216);
#218=PROPERTY_DEFINITION_REPRESENTATION(#223,#220);
#219=PROPERTY_DEFINITION_REPRESENTATION(#224,#221);
#220=REPRESENTATION('material name',(#222),#355);
#221=REPRESENTATION('density',(#217),#355);
#222=DESCRIPTIVE_REPRESENTATION_ITEM('Nylon 6','Nylon 6');
#223=PROPERTY_DEFINITION('material property','material name',#365);
#224=PROPERTY_DEFINITION('material property','density of part',#365);
#225=AXIS2_PLACEMENT_3D('',#296,#241,#242);
#226=AXIS2_PLACEMENT_3D('',#297,#243,#244);
#227=AXIS2_PLACEMENT_3D('',#307,#249,#250);
#228=AXIS2_PLACEMENT_3D('',#308,#251,#252);
#229=AXIS2_PLACEMENT_3D('',#310,#253,#254);
#230=AXIS2_PLACEMENT_3D('',#312,#256,#257);
#231=AXIS2_PLACEMENT_3D('',#318,#261,#262);
#232=AXIS2_PLACEMENT_3D('',#322,#265,#266);
#233=AXIS2_PLACEMENT_3D('',#330,#270,#271);
#234=AXIS2_PLACEMENT_3D('',#331,#272,#273);
#235=AXIS2_PLACEMENT_3D('',#337,#277,#278);
#236=AXIS2_PLACEMENT_3D('',#344,#283,#284);
#237=AXIS2_PLACEMENT_3D('',#348,#287,#288);
#238=AXIS2_PLACEMENT_3D('',#349,#289,#290);
#239=AXIS2_PLACEMENT_3D('',#350,#291,#292);
#240=AXIS2_PLACEMENT_3D('',#352,#294,#295);
#241=DIRECTION('axis',(0.,0.,1.));
#242=DIRECTION('refdir',(1.,0.,0.));
#243=DIRECTION('center_axis',(0.,-1.,0.));
#244=DIRECTION('ref_axis',(0.,0.,-1.));
#245=DIRECTION('',(1.,0.,0.));
#246=DIRECTION('',(0.,0.,1.));
#247=DIRECTION('',(1.,0.,0.));
#248=DIRECTION('',(0.,0.,1.));
#249=DIRECTION('center_axis',(0.,1.,0.));
#250=DIRECTION('ref_axis',(1.,0.,0.));
#251=DIRECTION('center_axis',(0.,-1.,0.));
#252=DIRECTION('ref_axis',(1.,0.,0.));
#253=DIRECTION('center_axis',(0.,-1.,0.));
#254=DIRECTION('ref_axis',(1.,0.,0.));
#255=DIRECTION('',(0.,1.,0.));
#256=DIRECTION('center_axis',(-1.,0.,0.));
#257=DIRECTION('ref_axis',(0.,0.,1.));
#258=DIRECTION('',(0.,0.,1.));
#259=DIRECTION('',(0.,1.,0.));
#260=DIRECTION('',(0.,1.,0.));
#261=DIRECTION('center_axis',(0.,0.,1.));
#262=DIRECTION('ref_axis',(1.,0.,0.));
#263=DIRECTION('',(-1.,0.,0.));
#264=DIRECTION('',(0.,1.,-3.95732829221945E-12));
#265=DIRECTION('center_axis',(-1.,0.,0.));
#266=DIRECTION('ref_axis',(0.,1.,0.));
#267=DIRECTION('',(0.,-1.,7.40148683080119E-14));
#268=DIRECTION('',(0.,0.,-1.));
#269=DIRECTION('',(0.,1.,7.89491928618794E-14));
#270=DIRECTION('center_axis',(-1.,0.,0.));
#271=DIRECTION('ref_axis',(0.,-1.,0.));
#272=DIRECTION('center_axis',(0.,-7.40148683080119E-14,-1.));
#273=DIRECTION('ref_axis',(0.,1.,-7.40148683080119E-14));
#274=DIRECTION('',(1.,0.,0.));
#275=DIRECTION('',(0.,-1.,7.40148683080119E-14));
#276=DIRECTION('',(1.,0.,0.));
#277=DIRECTION('center_axis',(0.,1.,0.));
#278=DIRECTION('ref_axis',(0.,0.,1.));
#279=DIRECTION('',(1.,0.,0.));
#280=DIRECTION('',(0.,0.,-1.));
#281=DIRECTION('',(1.,0.,0.));
#282=DIRECTION('',(0.,0.,-1.));
#283=DIRECTION('center_axis',(0.,-7.89491928618794E-14,1.));
#284=DIRECTION('ref_axis',(0.,-1.,-7.89491928618794E-14));
#285=DIRECTION('',(0.,-1.,-7.89491928618794E-14));
#286=DIRECTION('',(1.,0.,0.));
#287=DIRECTION('center_axis',(-1.,0.,0.));
#288=DIRECTION('ref_axis',(0.,1.,1.22464679914735E-16));
#289=DIRECTION('center_axis',(1.,0.,0.));
#290=DIRECTION('ref_axis',(0.,-1.,0.));
#291=DIRECTION('center_axis',(0.,0.,-1.));
#292=DIRECTION('ref_axis',(0.,1.,0.));
#293=DIRECTION('',(0.,-1.,0.));
#294=DIRECTION('center_axis',(1.,0.,0.));
#295=DIRECTION('ref_axis',(0.,-1.,0.));
#296=CARTESIAN_POINT('',(0.,0.,0.));
#297=CARTESIAN_POINT('Origin',(2.48,-4.76000000000164,-9.54000000000029));
#298=CARTESIAN_POINT('',(2.48,-4.76000000000164,-10.8900000000008));
#299=CARTESIAN_POINT('',(4.23,-4.76000000000164,-10.8899999999999));
#300=CARTESIAN_POINT('',(2.48,-4.76000000000164,-10.8900000000008));
#301=CARTESIAN_POINT('',(2.48,-4.76000000000164,-9.54000000000029));
#302=CARTESIAN_POINT('',(2.48,-4.76000000000164,-12.2399999999999));
#303=CARTESIAN_POINT('',(4.23,-4.76000000000164,-9.53999999999987));
#304=CARTESIAN_POINT('',(2.48,-4.76000000000164,-9.54000000000029));
#305=CARTESIAN_POINT('',(4.23,-4.76000000000164,-10.8899999999999));
#306=CARTESIAN_POINT('',(3.46500002831221,-4.76000000000164,-10.1750000000006));
#307=CARTESIAN_POINT('Origin',(3.67500002831221,-4.76000000000164,-10.1750000000006));
#308=CARTESIAN_POINT('Origin',(3.67500002831221,-5.76000000000164,-10.1750000000006));
#309=CARTESIAN_POINT('',(3.46500002831221,-5.76000000000164,-10.1750000000006));
#310=CARTESIAN_POINT('Origin',(3.67500002831221,-5.76000000000164,-10.1750000000006));
#311=CARTESIAN_POINT('',(3.46500002831221,-5.76000000000164,-10.1750000000006));
#312=CARTESIAN_POINT('Origin',(4.23,-5.76000000000164,-10.8899999999999));
#313=CARTESIAN_POINT('',(4.23,-5.76000000000164,-10.8899999999999));
#314=CARTESIAN_POINT('',(4.23,-5.76000000000164,-9.53999999999987));
#315=CARTESIAN_POINT('',(4.23,-5.76000000000164,-10.8899999999999));
#316=CARTESIAN_POINT('',(4.23,-5.76000000000164,-10.8899999999999));
#317=CARTESIAN_POINT('',(4.23,-5.76000000000164,-9.53999999999987));
#318=CARTESIAN_POINT('Origin',(3.98,-5.76000000000164,-10.8899999999999));
#319=CARTESIAN_POINT('',(2.48,-5.76000000000164,-10.8899999999968));
#320=CARTESIAN_POINT('',(2.48,-5.76000000000164,-10.8899999999968));
#321=CARTESIAN_POINT('',(2.48,-4.82750000000263,-10.8900000000005));
#322=CARTESIAN_POINT('Origin',(3.12,-5.26000000000085,-10.2150000000004));
#323=CARTESIAN_POINT('',(3.12,-5.40000000000003,-10.6750000000006));
#324=CARTESIAN_POINT('',(3.12,-5.76000000000164,-10.6750000000006));
#325=CARTESIAN_POINT('',(3.12,-5.51000000000126,-10.6750000000006));
#326=CARTESIAN_POINT('',(3.12,-5.76000000000164,-9.67500000000061));
#327=CARTESIAN_POINT('',(3.12,-5.76000000000164,-10.8900000000005));
#328=CARTESIAN_POINT('',(3.12,-5.40000000000003,-9.67500000000058));
#329=CARTESIAN_POINT('',(3.12,-5.33000000000046,-9.67500000000058));
#330=CARTESIAN_POINT('Origin',(3.12,-5.39999999999999,-10.1750000000006));
#331=CARTESIAN_POINT('Origin',(2.48,-5.76000000000164,-10.6750000000006));
#332=CARTESIAN_POINT('',(2.48,-5.40000000000003,-10.6750000000006));
#333=CARTESIAN_POINT('',(2.48,-5.40000000000003,-10.6750000000006));
#334=CARTESIAN_POINT('',(2.48,-5.76000000000164,-10.6750000000006));
#335=CARTESIAN_POINT('',(2.48,-5.40000000000003,-10.6750000000006));
#336=CARTESIAN_POINT('',(2.48,-5.76000000000164,-10.6750000000006));
#337=CARTESIAN_POINT('Origin',(2.48,-5.76000000000164,-10.8899999999999));
#338=CARTESIAN_POINT('',(2.48,-5.76000000000164,-9.54000000000029));
#339=CARTESIAN_POINT('',(2.48,-5.76000000000164,-9.54000000000029));
#340=CARTESIAN_POINT('',(2.48,-5.76000000000164,-9.67500000000061));
#341=CARTESIAN_POINT('',(2.48,-5.76000000000164,-9.54000000000029));
#342=CARTESIAN_POINT('',(2.48,-5.76000000000164,-9.67500000000061));
#343=CARTESIAN_POINT('',(2.48,-5.76000000000164,-9.54000000000029));
#344=CARTESIAN_POINT('Origin',(2.48,-5.40000000000003,-9.67500000000058));
#345=CARTESIAN_POINT('',(2.48,-5.40000000000003,-9.67500000000058));
#346=CARTESIAN_POINT('',(2.48,-5.40000000000003,-9.67500000000058));
#347=CARTESIAN_POINT('',(2.48,-5.40000000000003,-9.67500000000058));
#348=CARTESIAN_POINT('Origin',(2.48,-5.39999999999999,-10.1750000000006));
#349=CARTESIAN_POINT('Origin',(2.48,-5.39999999999999,-10.1750000000006));
#350=CARTESIAN_POINT('Origin',(2.48,-4.85000000000005,-9.54000000000029));
#351=CARTESIAN_POINT('',(2.48,-4.76000000000164,-9.54000000000029));
#352=CARTESIAN_POINT('Origin',(2.48,-4.80500000000005,-9.58500000000032));
#353=UNCERTAINTY_MEASURE_WITH_UNIT(LENGTH_MEASURE(0.001),#357,
'DISTANCE_ACCURACY_VALUE',
'Maximum model space distance between geometric entities at asserted c
onnectivities');
#354=UNCERTAINTY_MEASURE_WITH_UNIT(LENGTH_MEASURE(0.001),#357,
'DISTANCE_ACCURACY_VALUE',
'Maximum model space distance between geometric entities at asserted c
onnectivities');
#355=(
GEOMETRIC_REPRESENTATION_CONTEXT(3)
GLOBAL_UNCERTAINTY_ASSIGNED_CONTEXT((#353))
GLOBAL_UNIT_ASSIGNED_CONTEXT((#357,#359,#360))
REPRESENTATION_CONTEXT('','3D')
);
#356=(
GEOMETRIC_REPRESENTATION_CONTEXT(3)
GLOBAL_UNCERTAINTY_ASSIGNED_CONTEXT((#354))
GLOBAL_UNIT_ASSIGNED_CONTEXT((#357,#359,#360))
REPRESENTATION_CONTEXT('','3D')
);
#357=(
LENGTH_UNIT()
NAMED_UNIT(*)
SI_UNIT(.CENTI.,.METRE.)
);
#358=(
LENGTH_UNIT()
NAMED_UNIT(*)
SI_UNIT($,.METRE.)
);
#359=(
NAMED_UNIT(*)
PLANE_ANGLE_UNIT()
SI_UNIT($,.RADIAN.)
);
#360=(
NAMED_UNIT(*)
SI_UNIT($,.STERADIAN.)
SOLID_ANGLE_UNIT()
);
#361=SHAPE_DEFINITION_REPRESENTATION(#362,#363);
#362=PRODUCT_DEFINITION_SHAPE('',$,#365);
#363=SHAPE_REPRESENTATION('',(#225),#355);
#364=PRODUCT_DEFINITION_CONTEXT('part definition',#369,'design');
#365=PRODUCT_DEFINITION('qs8','qs8s_larger v6',#366,#364);
#366=PRODUCT_DEFINITION_FORMATION('',$,#371);
#367=PRODUCT_RELATED_PRODUCT_CATEGORY('qs8s_larger v6','qs8s_larger v6',
(#371));
#368=APPLICATION_PROTOCOL_DEFINITION('international standard',
'automotive_design',2009,#369);
#369=APPLICATION_CONTEXT(
'Core Data for Automotive Mechanical Design Process');
#370=PRODUCT_CONTEXT('part definition',#369,'mechanical');
#371=PRODUCT('qs8','qs8s_larger v6',$,(#370));
#372=PRESENTATION_STYLE_ASSIGNMENT((#376));
#373=PRESENTATION_STYLE_ASSIGNMENT((#377));
#374=PRESENTATION_STYLE_ASSIGNMENT((#378));
#375=PRESENTATION_STYLE_ASSIGNMENT((#379));
#376=SURFACE_STYLE_USAGE(.BOTH.,#380);
#377=SURFACE_STYLE_USAGE(.BOTH.,#381);
#378=SURFACE_STYLE_USAGE(.BOTH.,#382);
#379=SURFACE_STYLE_USAGE(.BOTH.,#383);
#380=SURFACE_SIDE_STYLE('',(#384));
#381=SURFACE_SIDE_STYLE('',(#385));
#382=SURFACE_SIDE_STYLE('',(#386));
#383=SURFACE_SIDE_STYLE('',(#387));
#384=SURFACE_STYLE_FILL_AREA(#388);
#385=SURFACE_STYLE_FILL_AREA(#389);
#386=SURFACE_STYLE_FILL_AREA(#390);
#387=SURFACE_STYLE_FILL_AREA(#391);
#388=FILL_AREA_STYLE('Nylon 6',(#392));
#389=FILL_AREA_STYLE('Opaque(0,64,128)',(#393));
#390=FILL_AREA_STYLE('Opaque(255,140,0)',(#394));
#391=FILL_AREA_STYLE('Opaque(255,241,177)',(#395));
#392=FILL_AREA_STYLE_COLOUR('Nylon 6',#396);
#393=FILL_AREA_STYLE_COLOUR('Opaque(0,64,128)',#397);
#394=FILL_AREA_STYLE_COLOUR('Opaque(255,140,0)',#398);
#395=FILL_AREA_STYLE_COLOUR('Opaque(255,241,177)',#399);
#396=COLOUR_RGB('Nylon 6',1.,0.968627450980392,0.725490196078431);
#397=COLOUR_RGB('Opaque(0,64,128)',0.,0.250980392156863,0.501960784313725);
#398=COLOUR_RGB('Opaque(255,140,0)',1.,0.549019607843137,0.);
#399=COLOUR_RGB('Opaque(255,241,177)',1.,0.945098039215686,0.694117647058824);
ENDSEC;
END-ISO-10303-21;
