ISO-10303-21;
HEADER;
/* Generated by software containing ST-Developer
 * from STEP Tools, Inc. (www.steptools.com) 
 */

FILE_DESCRIPTION(
/* description */ ('Open CASCADE Model'),
/* implementation_level */ '2;1');

FILE_NAME(
/* name */ 'LV_Bus_Bar.step',
/* time_stamp */ '2026-01-08T17:18:28+02:00',
/* author */ (''),
/* organization */ (''),
/* preprocessor_version */ 'ST-DEVELOPER v20.1',
/* originating_system */ 'Autodesk Translation Framework v14.21.0.0',
/* authorisation */ '');

FILE_SCHEMA (('AUTOMOTIVE_DESIGN { 1 0 10303 214 3 1 1 }'));
ENDSEC;

DATA;
#10=MECHANICAL_DESIGN_GEOMETRIC_PRESENTATION_REPRESENTATION('',(#17),#999);
#11=ITEM_DEFINED_TRANSFORMATION($,$,#611,#660);
#12=(
REPRESENTATION_RELATIONSHIP($,$,#1010,#1009)
REPRESENTATION_RELATIONSHIP_WITH_TRANSFORMATION(#11)
SHAPE_REPRESENTATION_RELATIONSHIP()
);
#13=CONTEXT_DEPENDENT_SHAPE_REPRESENTATION(#12,#1008);
#14=NEXT_ASSEMBLY_USAGE_OCCURRENCE('LV Bus Bar:1','LV Bus Bar:1',
'LV Bus Bar:1',#1012,#1013,'LV Bus Bar:1');
#15=SHAPE_REPRESENTATION_RELATIONSHIP('SRR','None',#1010,#16);
#16=ADVANCED_BREP_SHAPE_REPRESENTATION('',(#18),#998);
#17=STYLED_ITEM('',(#1023),#18);
#18=MANIFOLD_SOLID_BREP('LV_Bus_Bar',#597);
#19=FACE_BOUND('',#91,.T.);
#20=FACE_BOUND('',#95,.T.);
#21=FACE_BOUND('',#119,.T.);
#22=FACE_BOUND('',#121,.T.);
#23=PLANE('',#615);
#24=PLANE('',#619);
#25=PLANE('',#620);
#26=PLANE('',#621);
#27=PLANE('',#622);
#28=PLANE('',#626);
#29=PLANE('',#627);
#30=PLANE('',#634);
#31=PLANE('',#638);
#32=PLANE('',#639);
#33=PLANE('',#640);
#34=PLANE('',#641);
#35=PLANE('',#642);
#36=PLANE('',#643);
#37=PLANE('',#644);
#38=PLANE('',#645);
#39=PLANE('',#646);
#40=PLANE('',#647);
#41=PLANE('',#648);
#42=PLANE('',#649);
#43=PLANE('',#650);
#44=PLANE('',#651);
#45=PLANE('',#652);
#46=PLANE('',#656);
#47=PLANE('',#657);
#48=PLANE('',#658);
#49=PLANE('',#659);
#50=FACE_OUTER_BOUND('',#84,.T.);
#51=FACE_OUTER_BOUND('',#85,.T.);
#52=FACE_OUTER_BOUND('',#86,.T.);
#53=FACE_OUTER_BOUND('',#87,.T.);
#54=FACE_OUTER_BOUND('',#88,.T.);
#55=FACE_OUTER_BOUND('',#89,.T.);
#56=FACE_OUTER_BOUND('',#90,.T.);
#57=FACE_OUTER_BOUND('',#92,.T.);
#58=FACE_OUTER_BOUND('',#93,.T.);
#59=FACE_OUTER_BOUND('',#94,.T.);
#60=FACE_OUTER_BOUND('',#96,.T.);
#61=FACE_OUTER_BOUND('',#97,.T.);
#62=FACE_OUTER_BOUND('',#98,.T.);
#63=FACE_OUTER_BOUND('',#99,.T.);
#64=FACE_OUTER_BOUND('',#100,.T.);
#65=FACE_OUTER_BOUND('',#101,.T.);
#66=FACE_OUTER_BOUND('',#102,.T.);
#67=FACE_OUTER_BOUND('',#103,.T.);
#68=FACE_OUTER_BOUND('',#104,.T.);
#69=FACE_OUTER_BOUND('',#105,.T.);
#70=FACE_OUTER_BOUND('',#106,.T.);
#71=FACE_OUTER_BOUND('',#107,.T.);
#72=FACE_OUTER_BOUND('',#108,.T.);
#73=FACE_OUTER_BOUND('',#109,.T.);
#74=FACE_OUTER_BOUND('',#110,.T.);
#75=FACE_OUTER_BOUND('',#111,.T.);
#76=FACE_OUTER_BOUND('',#112,.T.);
#77=FACE_OUTER_BOUND('',#113,.T.);
#78=FACE_OUTER_BOUND('',#114,.T.);
#79=FACE_OUTER_BOUND('',#115,.T.);
#80=FACE_OUTER_BOUND('',#116,.T.);
#81=FACE_OUTER_BOUND('',#117,.T.);
#82=FACE_OUTER_BOUND('',#118,.T.);
#83=FACE_OUTER_BOUND('',#120,.T.);
#84=EDGE_LOOP('',(#396,#397,#398,#399));
#85=EDGE_LOOP('',(#400,#401,#402,#403));
#86=EDGE_LOOP('',(#404,#405,#406,#407));
#87=EDGE_LOOP('',(#408,#409,#410,#411));
#88=EDGE_LOOP('',(#412,#413,#414,#415));
#89=EDGE_LOOP('',(#416,#417,#418,#419));
#90=EDGE_LOOP('',(#420,#421,#422,#423));
#91=EDGE_LOOP('',(#424,#425,#426,#427));
#92=EDGE_LOOP('',(#428,#429,#430,#431));
#93=EDGE_LOOP('',(#432,#433,#434,#435));
#94=EDGE_LOOP('',(#436,#437,#438,#439));
#95=EDGE_LOOP('',(#440,#441,#442,#443));
#96=EDGE_LOOP('',(#444,#445,#446,#447));
#97=EDGE_LOOP('',(#448,#449,#450,#451));
#98=EDGE_LOOP('',(#452,#453,#454,#455));
#99=EDGE_LOOP('',(#456,#457,#458,#459));
#100=EDGE_LOOP('',(#460,#461,#462,#463));
#101=EDGE_LOOP('',(#464,#465,#466,#467));
#102=EDGE_LOOP('',(#468,#469,#470,#471));
#103=EDGE_LOOP('',(#472,#473,#474,#475));
#104=EDGE_LOOP('',(#476,#477,#478,#479));
#105=EDGE_LOOP('',(#480,#481,#482,#483));
#106=EDGE_LOOP('',(#484,#485,#486,#487));
#107=EDGE_LOOP('',(#488,#489,#490,#491));
#108=EDGE_LOOP('',(#492,#493,#494,#495));
#109=EDGE_LOOP('',(#496,#497,#498,#499));
#110=EDGE_LOOP('',(#500,#501,#502,#503));
#111=EDGE_LOOP('',(#504,#505,#506,#507));
#112=EDGE_LOOP('',(#508,#509,#510,#511));
#113=EDGE_LOOP('',(#512,#513,#514,#515));
#114=EDGE_LOOP('',(#516,#517,#518,#519));
#115=EDGE_LOOP('',(#520,#521,#522,#523));
#116=EDGE_LOOP('',(#524,#525,#526,#527));
#117=EDGE_LOOP('',(#528,#529,#530,#531));
#118=EDGE_LOOP('',(#532,#533,#534,#535,#536,#537,#538,#539,#540,#541,#542));
#119=EDGE_LOOP('',(#543));
#120=EDGE_LOOP('',(#544,#545,#546,#547,#548,#549,#550,#551,#552,#553,#554));
#121=EDGE_LOOP('',(#555));
#122=LINE('',#836,#188);
#123=LINE('',#839,#189);
#124=LINE('',#842,#190);
#125=LINE('',#844,#191);
#126=LINE('',#845,#192);
#127=LINE('',#851,#193);
#128=LINE('',#853,#194);
#129=LINE('',#854,#195);
#130=LINE('',#858,#196);
#131=LINE('',#860,#197);
#132=LINE('',#862,#198);
#133=LINE('',#863,#199);
#134=LINE('',#866,#200);
#135=LINE('',#868,#201);
#136=LINE('',#869,#202);
#137=LINE('',#872,#203);
#138=LINE('',#873,#204);
#139=LINE('',#878,#205);
#140=LINE('',#881,#206);
#141=LINE('',#884,#207);
#142=LINE('',#886,#208);
#143=LINE('',#887,#209);
#144=LINE('',#889,#210);
#145=LINE('',#895,#211);
#146=LINE('',#900,#212);
#147=LINE('',#904,#213);
#148=LINE('',#906,#214);
#149=LINE('',#907,#215);
#150=LINE('',#912,#216);
#151=LINE('',#915,#217);
#152=LINE('',#917,#218);
#153=LINE('',#918,#219);
#154=LINE('',#920,#220);
#155=LINE('',#922,#221);
#156=LINE('',#925,#222);
#157=LINE('',#927,#223);
#158=LINE('',#930,#224);
#159=LINE('',#932,#225);
#160=LINE('',#933,#226);
#161=LINE('',#936,#227);
#162=LINE('',#938,#228);
#163=LINE('',#939,#229);
#164=LINE('',#942,#230);
#165=LINE('',#944,#231);
#166=LINE('',#945,#232);
#167=LINE('',#948,#233);
#168=LINE('',#950,#234);
#169=LINE('',#951,#235);
#170=LINE('',#955,#236);
#171=LINE('',#957,#237);
#172=LINE('',#959,#238);
#173=LINE('',#960,#239);
#174=LINE('',#963,#240);
#175=LINE('',#965,#241);
#176=LINE('',#966,#242);
#177=LINE('',#969,#243);
#178=LINE('',#971,#244);
#179=LINE('',#972,#245);
#180=LINE('',#975,#246);
#181=LINE('',#977,#247);
#182=LINE('',#978,#248);
#183=LINE('',#983,#249);
#184=LINE('',#986,#250);
#185=LINE('',#987,#251);
#186=LINE('',#989,#252);
#187=LINE('',#990,#253);
#188=VECTOR('',#669,10.);
#189=VECTOR('',#672,10.);
#190=VECTOR('',#675,10.);
#191=VECTOR('',#676,10.);
#192=VECTOR('',#677,10.);
#193=VECTOR('',#684,10.);
#194=VECTOR('',#687,10.);
#195=VECTOR('',#688,10.);
#196=VECTOR('',#691,10.);
#197=VECTOR('',#692,10.);
#198=VECTOR('',#693,10.);
#199=VECTOR('',#694,10.);
#200=VECTOR('',#697,10.);
#201=VECTOR('',#698,10.);
#202=VECTOR('',#699,10.);
#203=VECTOR('',#702,10.);
#204=VECTOR('',#703,10.);
#205=VECTOR('',#708,10.);
#206=VECTOR('',#711,10.);
#207=VECTOR('',#714,10.);
#208=VECTOR('',#715,10.);
#209=VECTOR('',#716,10.);
#210=VECTOR('',#719,10.);
#211=VECTOR('',#726,10.);
#212=VECTOR('',#731,10.);
#213=VECTOR('',#736,10.);
#214=VECTOR('',#737,10.);
#215=VECTOR('',#738,10.);
#216=VECTOR('',#743,10.);
#217=VECTOR('',#748,10.);
#218=VECTOR('',#751,10.);
#219=VECTOR('',#752,10.);
#220=VECTOR('',#755,10.);
#221=VECTOR('',#758,10.);
#222=VECTOR('',#763,10.);
#223=VECTOR('',#766,10.);
#224=VECTOR('',#769,10.);
#225=VECTOR('',#770,10.);
#226=VECTOR('',#771,10.);
#227=VECTOR('',#774,10.);
#228=VECTOR('',#775,10.);
#229=VECTOR('',#776,10.);
#230=VECTOR('',#779,10.);
#231=VECTOR('',#780,10.);
#232=VECTOR('',#781,10.);
#233=VECTOR('',#784,10.);
#234=VECTOR('',#785,10.);
#235=VECTOR('',#786,10.);
#236=VECTOR('',#789,10.);
#237=VECTOR('',#790,10.);
#238=VECTOR('',#791,10.);
#239=VECTOR('',#792,10.);
#240=VECTOR('',#795,10.);
#241=VECTOR('',#796,10.);
#242=VECTOR('',#797,10.);
#243=VECTOR('',#800,10.);
#244=VECTOR('',#801,10.);
#245=VECTOR('',#802,10.);
#246=VECTOR('',#805,10.);
#247=VECTOR('',#806,10.);
#248=VECTOR('',#807,10.);
#249=VECTOR('',#812,1.897806006994);
#250=VECTOR('',#817,10.);
#251=VECTOR('',#818,10.);
#252=VECTOR('',#821,10.);
#253=VECTOR('',#822,10.);
#254=CIRCLE('',#613,2.10000000000001);
#255=CIRCLE('',#614,2.10000000000001);
#256=CIRCLE('',#617,2.10000000000001);
#257=CIRCLE('',#618,2.10000000000001);
#258=CIRCLE('',#624,3.);
#259=CIRCLE('',#625,3.);
#260=CIRCLE('',#629,6.);
#261=CIRCLE('',#630,6.);
#262=CIRCLE('',#632,6.);
#263=CIRCLE('',#633,6.);
#264=CIRCLE('',#636,3.);
#265=CIRCLE('',#637,3.);
#266=CIRCLE('',#654,1.897806006994);
#267=CIRCLE('',#655,1.897806006994);
#268=VERTEX_POINT('',#832);
#269=VERTEX_POINT('',#833);
#270=VERTEX_POINT('',#835);
#271=VERTEX_POINT('',#837);
#272=VERTEX_POINT('',#841);
#273=VERTEX_POINT('',#843);
#274=VERTEX_POINT('',#847);
#275=VERTEX_POINT('',#849);
#276=VERTEX_POINT('',#856);
#277=VERTEX_POINT('',#857);
#278=VERTEX_POINT('',#859);
#279=VERTEX_POINT('',#861);
#280=VERTEX_POINT('',#865);
#281=VERTEX_POINT('',#867);
#282=VERTEX_POINT('',#871);
#283=VERTEX_POINT('',#875);
#284=VERTEX_POINT('',#877);
#285=VERTEX_POINT('',#879);
#286=VERTEX_POINT('',#883);
#287=VERTEX_POINT('',#885);
#288=VERTEX_POINT('',#891);
#289=VERTEX_POINT('',#893);
#290=VERTEX_POINT('',#897);
#291=VERTEX_POINT('',#899);
#292=VERTEX_POINT('',#903);
#293=VERTEX_POINT('',#905);
#294=VERTEX_POINT('',#909);
#295=VERTEX_POINT('',#911);
#296=VERTEX_POINT('',#929);
#297=VERTEX_POINT('',#931);
#298=VERTEX_POINT('',#935);
#299=VERTEX_POINT('',#937);
#300=VERTEX_POINT('',#941);
#301=VERTEX_POINT('',#943);
#302=VERTEX_POINT('',#947);
#303=VERTEX_POINT('',#949);
#304=VERTEX_POINT('',#953);
#305=VERTEX_POINT('',#954);
#306=VERTEX_POINT('',#956);
#307=VERTEX_POINT('',#958);
#308=VERTEX_POINT('',#962);
#309=VERTEX_POINT('',#964);
#310=VERTEX_POINT('',#968);
#311=VERTEX_POINT('',#970);
#312=VERTEX_POINT('',#974);
#313=VERTEX_POINT('',#976);
#314=VERTEX_POINT('',#980);
#315=VERTEX_POINT('',#982);
#316=EDGE_CURVE('',#268,#269,#254,.T.);
#317=EDGE_CURVE('',#268,#270,#122,.T.);
#318=EDGE_CURVE('',#271,#270,#255,.T.);
#319=EDGE_CURVE('',#269,#271,#123,.T.);
#320=EDGE_CURVE('',#269,#272,#124,.T.);
#321=EDGE_CURVE('',#273,#271,#125,.T.);
#322=EDGE_CURVE('',#272,#273,#126,.T.);
#323=EDGE_CURVE('',#272,#274,#256,.T.);
#324=EDGE_CURVE('',#275,#273,#257,.T.);
#325=EDGE_CURVE('',#274,#275,#127,.T.);
#326=EDGE_CURVE('',#274,#268,#128,.T.);
#327=EDGE_CURVE('',#270,#275,#129,.T.);
#328=EDGE_CURVE('',#276,#277,#130,.T.);
#329=EDGE_CURVE('',#278,#276,#131,.T.);
#330=EDGE_CURVE('',#278,#279,#132,.T.);
#331=EDGE_CURVE('',#277,#279,#133,.T.);
#332=EDGE_CURVE('',#277,#280,#134,.T.);
#333=EDGE_CURVE('',#281,#279,#135,.T.);
#334=EDGE_CURVE('',#280,#281,#136,.T.);
#335=EDGE_CURVE('',#278,#282,#137,.T.);
#336=EDGE_CURVE('',#282,#281,#138,.T.);
#337=EDGE_CURVE('',#283,#276,#258,.T.);
#338=EDGE_CURVE('',#276,#284,#139,.T.);
#339=EDGE_CURVE('',#284,#285,#259,.T.);
#340=EDGE_CURVE('',#285,#283,#140,.T.);
#341=EDGE_CURVE('',#285,#286,#141,.T.);
#342=EDGE_CURVE('',#287,#286,#142,.T.);
#343=EDGE_CURVE('',#287,#283,#143,.T.);
#344=EDGE_CURVE('',#280,#284,#144,.T.);
#345=EDGE_CURVE('',#288,#287,#260,.T.);
#346=EDGE_CURVE('',#286,#289,#261,.T.);
#347=EDGE_CURVE('',#289,#288,#145,.T.);
#348=EDGE_CURVE('',#290,#278,#262,.T.);
#349=EDGE_CURVE('',#291,#290,#146,.T.);
#350=EDGE_CURVE('',#282,#291,#263,.T.);
#351=EDGE_CURVE('',#292,#290,#147,.T.);
#352=EDGE_CURVE('',#292,#293,#148,.T.);
#353=EDGE_CURVE('',#291,#293,#149,.T.);
#354=EDGE_CURVE('',#294,#292,#264,.T.);
#355=EDGE_CURVE('',#295,#294,#150,.T.);
#356=EDGE_CURVE('',#293,#295,#265,.T.);
#357=EDGE_CURVE('',#290,#283,#151,.T.);
#358=EDGE_CURVE('',#291,#285,#152,.T.);
#359=EDGE_CURVE('',#282,#284,#153,.T.);
#360=EDGE_CURVE('',#293,#286,#154,.T.);
#361=EDGE_CURVE('',#292,#287,#155,.T.);
#362=EDGE_CURVE('',#294,#288,#156,.T.);
#363=EDGE_CURVE('',#295,#289,#157,.T.);
#364=EDGE_CURVE('',#295,#296,#158,.T.);
#365=EDGE_CURVE('',#297,#296,#159,.T.);
#366=EDGE_CURVE('',#289,#297,#160,.T.);
#367=EDGE_CURVE('',#298,#294,#161,.T.);
#368=EDGE_CURVE('',#299,#288,#162,.T.);
#369=EDGE_CURVE('',#298,#299,#163,.T.);
#370=EDGE_CURVE('',#300,#299,#164,.T.);
#371=EDGE_CURVE('',#301,#300,#165,.T.);
#372=EDGE_CURVE('',#301,#298,#166,.T.);
#373=EDGE_CURVE('',#296,#302,#167,.T.);
#374=EDGE_CURVE('',#302,#303,#168,.T.);
#375=EDGE_CURVE('',#297,#303,#169,.T.);
#376=EDGE_CURVE('',#304,#305,#170,.T.);
#377=EDGE_CURVE('',#304,#306,#171,.T.);
#378=EDGE_CURVE('',#307,#306,#172,.T.);
#379=EDGE_CURVE('',#305,#307,#173,.T.);
#380=EDGE_CURVE('',#305,#308,#174,.T.);
#381=EDGE_CURVE('',#309,#307,#175,.T.);
#382=EDGE_CURVE('',#308,#309,#176,.T.);
#383=EDGE_CURVE('',#310,#308,#177,.T.);
#384=EDGE_CURVE('',#311,#309,#178,.T.);
#385=EDGE_CURVE('',#310,#311,#179,.T.);
#386=EDGE_CURVE('',#312,#310,#180,.T.);
#387=EDGE_CURVE('',#313,#311,#181,.T.);
#388=EDGE_CURVE('',#312,#313,#182,.T.);
#389=EDGE_CURVE('',#314,#314,#266,.T.);
#390=EDGE_CURVE('',#314,#315,#183,.T.);
#391=EDGE_CURVE('',#315,#315,#267,.T.);
#392=EDGE_CURVE('',#302,#312,#184,.T.);
#393=EDGE_CURVE('',#303,#313,#185,.T.);
#394=EDGE_CURVE('',#301,#304,#186,.T.);
#395=EDGE_CURVE('',#306,#300,#187,.T.);
#396=ORIENTED_EDGE('',*,*,#316,.F.);
#397=ORIENTED_EDGE('',*,*,#317,.T.);
#398=ORIENTED_EDGE('',*,*,#318,.F.);
#399=ORIENTED_EDGE('',*,*,#319,.F.);
#400=ORIENTED_EDGE('',*,*,#320,.F.);
#401=ORIENTED_EDGE('',*,*,#319,.T.);
#402=ORIENTED_EDGE('',*,*,#321,.F.);
#403=ORIENTED_EDGE('',*,*,#322,.F.);
#404=ORIENTED_EDGE('',*,*,#323,.F.);
#405=ORIENTED_EDGE('',*,*,#322,.T.);
#406=ORIENTED_EDGE('',*,*,#324,.F.);
#407=ORIENTED_EDGE('',*,*,#325,.F.);
#408=ORIENTED_EDGE('',*,*,#326,.F.);
#409=ORIENTED_EDGE('',*,*,#325,.T.);
#410=ORIENTED_EDGE('',*,*,#327,.F.);
#411=ORIENTED_EDGE('',*,*,#317,.F.);
#412=ORIENTED_EDGE('',*,*,#328,.F.);
#413=ORIENTED_EDGE('',*,*,#329,.F.);
#414=ORIENTED_EDGE('',*,*,#330,.T.);
#415=ORIENTED_EDGE('',*,*,#331,.F.);
#416=ORIENTED_EDGE('',*,*,#332,.F.);
#417=ORIENTED_EDGE('',*,*,#331,.T.);
#418=ORIENTED_EDGE('',*,*,#333,.F.);
#419=ORIENTED_EDGE('',*,*,#334,.F.);
#420=ORIENTED_EDGE('',*,*,#333,.T.);
#421=ORIENTED_EDGE('',*,*,#330,.F.);
#422=ORIENTED_EDGE('',*,*,#335,.T.);
#423=ORIENTED_EDGE('',*,*,#336,.T.);
#424=ORIENTED_EDGE('',*,*,#327,.T.);
#425=ORIENTED_EDGE('',*,*,#324,.T.);
#426=ORIENTED_EDGE('',*,*,#321,.T.);
#427=ORIENTED_EDGE('',*,*,#318,.T.);
#428=ORIENTED_EDGE('',*,*,#337,.T.);
#429=ORIENTED_EDGE('',*,*,#338,.T.);
#430=ORIENTED_EDGE('',*,*,#339,.T.);
#431=ORIENTED_EDGE('',*,*,#340,.T.);
#432=ORIENTED_EDGE('',*,*,#340,.F.);
#433=ORIENTED_EDGE('',*,*,#341,.T.);
#434=ORIENTED_EDGE('',*,*,#342,.F.);
#435=ORIENTED_EDGE('',*,*,#343,.T.);
#436=ORIENTED_EDGE('',*,*,#338,.F.);
#437=ORIENTED_EDGE('',*,*,#328,.T.);
#438=ORIENTED_EDGE('',*,*,#332,.T.);
#439=ORIENTED_EDGE('',*,*,#344,.T.);
#440=ORIENTED_EDGE('',*,*,#320,.T.);
#441=ORIENTED_EDGE('',*,*,#323,.T.);
#442=ORIENTED_EDGE('',*,*,#326,.T.);
#443=ORIENTED_EDGE('',*,*,#316,.T.);
#444=ORIENTED_EDGE('',*,*,#345,.T.);
#445=ORIENTED_EDGE('',*,*,#342,.T.);
#446=ORIENTED_EDGE('',*,*,#346,.T.);
#447=ORIENTED_EDGE('',*,*,#347,.T.);
#448=ORIENTED_EDGE('',*,*,#348,.F.);
#449=ORIENTED_EDGE('',*,*,#349,.F.);
#450=ORIENTED_EDGE('',*,*,#350,.F.);
#451=ORIENTED_EDGE('',*,*,#335,.F.);
#452=ORIENTED_EDGE('',*,*,#349,.T.);
#453=ORIENTED_EDGE('',*,*,#351,.F.);
#454=ORIENTED_EDGE('',*,*,#352,.T.);
#455=ORIENTED_EDGE('',*,*,#353,.F.);
#456=ORIENTED_EDGE('',*,*,#354,.F.);
#457=ORIENTED_EDGE('',*,*,#355,.F.);
#458=ORIENTED_EDGE('',*,*,#356,.F.);
#459=ORIENTED_EDGE('',*,*,#352,.F.);
#460=ORIENTED_EDGE('',*,*,#348,.T.);
#461=ORIENTED_EDGE('',*,*,#329,.T.);
#462=ORIENTED_EDGE('',*,*,#337,.F.);
#463=ORIENTED_EDGE('',*,*,#357,.F.);
#464=ORIENTED_EDGE('',*,*,#350,.T.);
#465=ORIENTED_EDGE('',*,*,#358,.T.);
#466=ORIENTED_EDGE('',*,*,#339,.F.);
#467=ORIENTED_EDGE('',*,*,#359,.F.);
#468=ORIENTED_EDGE('',*,*,#353,.T.);
#469=ORIENTED_EDGE('',*,*,#360,.T.);
#470=ORIENTED_EDGE('',*,*,#341,.F.);
#471=ORIENTED_EDGE('',*,*,#358,.F.);
#472=ORIENTED_EDGE('',*,*,#351,.T.);
#473=ORIENTED_EDGE('',*,*,#357,.T.);
#474=ORIENTED_EDGE('',*,*,#343,.F.);
#475=ORIENTED_EDGE('',*,*,#361,.F.);
#476=ORIENTED_EDGE('',*,*,#336,.F.);
#477=ORIENTED_EDGE('',*,*,#359,.T.);
#478=ORIENTED_EDGE('',*,*,#344,.F.);
#479=ORIENTED_EDGE('',*,*,#334,.T.);
#480=ORIENTED_EDGE('',*,*,#354,.T.);
#481=ORIENTED_EDGE('',*,*,#361,.T.);
#482=ORIENTED_EDGE('',*,*,#345,.F.);
#483=ORIENTED_EDGE('',*,*,#362,.F.);
#484=ORIENTED_EDGE('',*,*,#356,.T.);
#485=ORIENTED_EDGE('',*,*,#363,.T.);
#486=ORIENTED_EDGE('',*,*,#346,.F.);
#487=ORIENTED_EDGE('',*,*,#360,.F.);
#488=ORIENTED_EDGE('',*,*,#364,.T.);
#489=ORIENTED_EDGE('',*,*,#365,.F.);
#490=ORIENTED_EDGE('',*,*,#366,.F.);
#491=ORIENTED_EDGE('',*,*,#363,.F.);
#492=ORIENTED_EDGE('',*,*,#367,.T.);
#493=ORIENTED_EDGE('',*,*,#362,.T.);
#494=ORIENTED_EDGE('',*,*,#368,.F.);
#495=ORIENTED_EDGE('',*,*,#369,.F.);
#496=ORIENTED_EDGE('',*,*,#369,.T.);
#497=ORIENTED_EDGE('',*,*,#370,.F.);
#498=ORIENTED_EDGE('',*,*,#371,.F.);
#499=ORIENTED_EDGE('',*,*,#372,.T.);
#500=ORIENTED_EDGE('',*,*,#365,.T.);
#501=ORIENTED_EDGE('',*,*,#373,.T.);
#502=ORIENTED_EDGE('',*,*,#374,.T.);
#503=ORIENTED_EDGE('',*,*,#375,.F.);
#504=ORIENTED_EDGE('',*,*,#376,.F.);
#505=ORIENTED_EDGE('',*,*,#377,.T.);
#506=ORIENTED_EDGE('',*,*,#378,.F.);
#507=ORIENTED_EDGE('',*,*,#379,.F.);
#508=ORIENTED_EDGE('',*,*,#380,.F.);
#509=ORIENTED_EDGE('',*,*,#379,.T.);
#510=ORIENTED_EDGE('',*,*,#381,.F.);
#511=ORIENTED_EDGE('',*,*,#382,.F.);
#512=ORIENTED_EDGE('',*,*,#383,.T.);
#513=ORIENTED_EDGE('',*,*,#382,.T.);
#514=ORIENTED_EDGE('',*,*,#384,.F.);
#515=ORIENTED_EDGE('',*,*,#385,.F.);
#516=ORIENTED_EDGE('',*,*,#386,.T.);
#517=ORIENTED_EDGE('',*,*,#385,.T.);
#518=ORIENTED_EDGE('',*,*,#387,.F.);
#519=ORIENTED_EDGE('',*,*,#388,.F.);
#520=ORIENTED_EDGE('',*,*,#389,.F.);
#521=ORIENTED_EDGE('',*,*,#390,.T.);
#522=ORIENTED_EDGE('',*,*,#391,.F.);
#523=ORIENTED_EDGE('',*,*,#390,.F.);
#524=ORIENTED_EDGE('',*,*,#392,.T.);
#525=ORIENTED_EDGE('',*,*,#388,.T.);
#526=ORIENTED_EDGE('',*,*,#393,.F.);
#527=ORIENTED_EDGE('',*,*,#374,.F.);
#528=ORIENTED_EDGE('',*,*,#394,.F.);
#529=ORIENTED_EDGE('',*,*,#371,.T.);
#530=ORIENTED_EDGE('',*,*,#395,.F.);
#531=ORIENTED_EDGE('',*,*,#377,.F.);
#532=ORIENTED_EDGE('',*,*,#393,.T.);
#533=ORIENTED_EDGE('',*,*,#387,.T.);
#534=ORIENTED_EDGE('',*,*,#384,.T.);
#535=ORIENTED_EDGE('',*,*,#381,.T.);
#536=ORIENTED_EDGE('',*,*,#378,.T.);
#537=ORIENTED_EDGE('',*,*,#395,.T.);
#538=ORIENTED_EDGE('',*,*,#370,.T.);
#539=ORIENTED_EDGE('',*,*,#368,.T.);
#540=ORIENTED_EDGE('',*,*,#347,.F.);
#541=ORIENTED_EDGE('',*,*,#366,.T.);
#542=ORIENTED_EDGE('',*,*,#375,.T.);
#543=ORIENTED_EDGE('',*,*,#389,.T.);
#544=ORIENTED_EDGE('',*,*,#392,.F.);
#545=ORIENTED_EDGE('',*,*,#373,.F.);
#546=ORIENTED_EDGE('',*,*,#364,.F.);
#547=ORIENTED_EDGE('',*,*,#355,.T.);
#548=ORIENTED_EDGE('',*,*,#367,.F.);
#549=ORIENTED_EDGE('',*,*,#372,.F.);
#550=ORIENTED_EDGE('',*,*,#394,.T.);
#551=ORIENTED_EDGE('',*,*,#376,.T.);
#552=ORIENTED_EDGE('',*,*,#380,.T.);
#553=ORIENTED_EDGE('',*,*,#383,.F.);
#554=ORIENTED_EDGE('',*,*,#386,.F.);
#555=ORIENTED_EDGE('',*,*,#391,.T.);
#556=CYLINDRICAL_SURFACE('',#612,2.1);
#557=CYLINDRICAL_SURFACE('',#616,2.1);
#558=CYLINDRICAL_SURFACE('',#623,3.);
#559=CYLINDRICAL_SURFACE('',#628,6.);
#560=CYLINDRICAL_SURFACE('',#631,6.);
#561=CYLINDRICAL_SURFACE('',#635,3.);
#562=CYLINDRICAL_SURFACE('',#653,1.897806006994);
#563=ADVANCED_FACE('',(#50),#556,.F.);
#564=ADVANCED_FACE('',(#51),#23,.F.);
#565=ADVANCED_FACE('',(#52),#557,.F.);
#566=ADVANCED_FACE('',(#53),#24,.F.);
#567=ADVANCED_FACE('',(#54),#25,.T.);
#568=ADVANCED_FACE('',(#55),#26,.T.);
#569=ADVANCED_FACE('',(#56,#19),#27,.T.);
#570=ADVANCED_FACE('',(#57),#558,.F.);
#571=ADVANCED_FACE('',(#58),#28,.F.);
#572=ADVANCED_FACE('',(#59,#20),#29,.F.);
#573=ADVANCED_FACE('',(#60),#559,.T.);
#574=ADVANCED_FACE('',(#61),#560,.T.);
#575=ADVANCED_FACE('',(#62),#30,.T.);
#576=ADVANCED_FACE('',(#63),#561,.F.);
#577=ADVANCED_FACE('',(#64),#31,.F.);
#578=ADVANCED_FACE('',(#65),#32,.F.);
#579=ADVANCED_FACE('',(#66),#33,.F.);
#580=ADVANCED_FACE('',(#67),#34,.F.);
#581=ADVANCED_FACE('',(#68),#35,.F.);
#582=ADVANCED_FACE('',(#69),#36,.F.);
#583=ADVANCED_FACE('',(#70),#37,.F.);
#584=ADVANCED_FACE('',(#71),#38,.F.);
#585=ADVANCED_FACE('',(#72),#39,.F.);
#586=ADVANCED_FACE('',(#73),#40,.T.);
#587=ADVANCED_FACE('',(#74),#41,.T.);
#588=ADVANCED_FACE('',(#75),#42,.T.);
#589=ADVANCED_FACE('',(#76),#43,.T.);
#590=ADVANCED_FACE('',(#77),#44,.T.);
#591=ADVANCED_FACE('',(#78),#45,.T.);
#592=ADVANCED_FACE('',(#79),#562,.F.);
#593=ADVANCED_FACE('',(#80),#46,.T.);
#594=ADVANCED_FACE('',(#81),#47,.T.);
#595=ADVANCED_FACE('',(#82,#21),#48,.T.);
#596=ADVANCED_FACE('',(#83,#22),#49,.F.);
#597=CLOSED_SHELL('',(#563,#564,#565,#566,#567,#568,#569,#570,#571,#572,
#573,#574,#575,#576,#577,#578,#579,#580,#581,#582,#583,#584,#585,#586,#587,
#588,#589,#590,#591,#592,#593,#594,#595,#596));
#598=DERIVED_UNIT_ELEMENT(#600,1.);
#599=DERIVED_UNIT_ELEMENT(#1001,-3.);
#600=(
MASS_UNIT()
NAMED_UNIT(*)
SI_UNIT(.KILO.,.GRAM.)
);
#601=DERIVED_UNIT((#598,#599));
#602=MEASURE_REPRESENTATION_ITEM('density measure',
POSITIVE_RATIO_MEASURE(7850.),#601);
#603=PROPERTY_DEFINITION_REPRESENTATION(#608,#605);
#604=PROPERTY_DEFINITION_REPRESENTATION(#609,#606);
#605=REPRESENTATION('material name',(#607),#998);
#606=REPRESENTATION('density',(#602),#998);
#607=DESCRIPTIVE_REPRESENTATION_ITEM('Steel','Steel');
#608=PROPERTY_DEFINITION('material property','material name',#1013);
#609=PROPERTY_DEFINITION('material property','density of part',#1013);
#610=AXIS2_PLACEMENT_3D('',#829,#661,#662);
#611=AXIS2_PLACEMENT_3D('',#830,#663,#664);
#612=AXIS2_PLACEMENT_3D('',#831,#665,#666);
#613=AXIS2_PLACEMENT_3D('',#834,#667,#668);
#614=AXIS2_PLACEMENT_3D('',#838,#670,#671);
#615=AXIS2_PLACEMENT_3D('',#840,#673,#674);
#616=AXIS2_PLACEMENT_3D('',#846,#678,#679);
#617=AXIS2_PLACEMENT_3D('',#848,#680,#681);
#618=AXIS2_PLACEMENT_3D('',#850,#682,#683);
#619=AXIS2_PLACEMENT_3D('',#852,#685,#686);
#620=AXIS2_PLACEMENT_3D('',#855,#689,#690);
#621=AXIS2_PLACEMENT_3D('',#864,#695,#696);
#622=AXIS2_PLACEMENT_3D('',#870,#700,#701);
#623=AXIS2_PLACEMENT_3D('',#874,#704,#705);
#624=AXIS2_PLACEMENT_3D('',#876,#706,#707);
#625=AXIS2_PLACEMENT_3D('',#880,#709,#710);
#626=AXIS2_PLACEMENT_3D('',#882,#712,#713);
#627=AXIS2_PLACEMENT_3D('',#888,#717,#718);
#628=AXIS2_PLACEMENT_3D('',#890,#720,#721);
#629=AXIS2_PLACEMENT_3D('',#892,#722,#723);
#630=AXIS2_PLACEMENT_3D('',#894,#724,#725);
#631=AXIS2_PLACEMENT_3D('',#896,#727,#728);
#632=AXIS2_PLACEMENT_3D('',#898,#729,#730);
#633=AXIS2_PLACEMENT_3D('',#901,#732,#733);
#634=AXIS2_PLACEMENT_3D('',#902,#734,#735);
#635=AXIS2_PLACEMENT_3D('',#908,#739,#740);
#636=AXIS2_PLACEMENT_3D('',#910,#741,#742);
#637=AXIS2_PLACEMENT_3D('',#913,#744,#745);
#638=AXIS2_PLACEMENT_3D('',#914,#746,#747);
#639=AXIS2_PLACEMENT_3D('',#916,#749,#750);
#640=AXIS2_PLACEMENT_3D('',#919,#753,#754);
#641=AXIS2_PLACEMENT_3D('',#921,#756,#757);
#642=AXIS2_PLACEMENT_3D('',#923,#759,#760);
#643=AXIS2_PLACEMENT_3D('',#924,#761,#762);
#644=AXIS2_PLACEMENT_3D('',#926,#764,#765);
#645=AXIS2_PLACEMENT_3D('',#928,#767,#768);
#646=AXIS2_PLACEMENT_3D('',#934,#772,#773);
#647=AXIS2_PLACEMENT_3D('',#940,#777,#778);
#648=AXIS2_PLACEMENT_3D('',#946,#782,#783);
#649=AXIS2_PLACEMENT_3D('',#952,#787,#788);
#650=AXIS2_PLACEMENT_3D('',#961,#793,#794);
#651=AXIS2_PLACEMENT_3D('',#967,#798,#799);
#652=AXIS2_PLACEMENT_3D('',#973,#803,#804);
#653=AXIS2_PLACEMENT_3D('',#979,#808,#809);
#654=AXIS2_PLACEMENT_3D('',#981,#810,#811);
#655=AXIS2_PLACEMENT_3D('',#984,#813,#814);
#656=AXIS2_PLACEMENT_3D('',#985,#815,#816);
#657=AXIS2_PLACEMENT_3D('',#988,#819,#820);
#658=AXIS2_PLACEMENT_3D('',#991,#823,#824);
#659=AXIS2_PLACEMENT_3D('',#992,#825,#826);
#660=AXIS2_PLACEMENT_3D('',#993,#827,#828);
#661=DIRECTION('axis',(0.,0.,1.));
#662=DIRECTION('refdir',(1.,0.,0.));
#663=DIRECTION('axis',(0.,0.,1.));
#664=DIRECTION('refdir',(1.,0.,0.));
#665=DIRECTION('center_axis',(0.,0.,-1.));
#666=DIRECTION('ref_axis',(-0.999999999999861,-5.27395365474652E-7,0.));
#667=DIRECTION('center_axis',(-8.63564035095622E-8,-2.28942290523705E-22,
-0.999999999999996));
#668=DIRECTION('ref_axis',(-0.999999999999857,-5.2739536547465E-7,8.63564035095502E-8));
#669=DIRECTION('',(0.,0.,-1.));
#670=DIRECTION('center_axis',(8.63564035095502E-8,0.,0.999999999999996));
#671=DIRECTION('ref_axis',(-0.999999999999857,-5.2739536547465E-7,8.63564035095382E-8));
#672=DIRECTION('',(0.,0.,-1.));
#673=DIRECTION('center_axis',(-0.999999999999861,-5.27395364986644E-7,0.));
#674=DIRECTION('ref_axis',(-5.27395364986644E-7,0.999999999999861,0.));
#675=DIRECTION('',(-5.27395364986644E-7,0.999999999999861,4.55439667189174E-14));
#676=DIRECTION('',(5.27395364986644E-7,-0.999999999999861,-4.55439669478533E-14));
#677=DIRECTION('',(0.,0.,-1.));
#678=DIRECTION('center_axis',(0.,0.,-1.));
#679=DIRECTION('ref_axis',(0.999999999999861,5.27395363359942E-7,0.));
#680=DIRECTION('center_axis',(-8.63564035095622E-8,-2.28942290523705E-22,
-0.999999999999996));
#681=DIRECTION('ref_axis',(0.999999999999857,5.2739536335994E-7,-8.63564035095502E-8));
#682=DIRECTION('center_axis',(8.63564035095502E-8,0.,0.999999999999996));
#683=DIRECTION('ref_axis',(0.999999999999857,5.2739536335994E-7,-8.63564035095382E-8));
#684=DIRECTION('',(0.,0.,-1.));
#685=DIRECTION('center_axis',(0.999999999999861,5.27395364986645E-7,0.));
#686=DIRECTION('ref_axis',(5.27395364986645E-7,-0.999999999999861,0.));
#687=DIRECTION('',(5.27395364986645E-7,-0.999999999999861,-4.55439667189174E-14));
#688=DIRECTION('',(-5.27395364986645E-7,0.999999999999861,4.55439669478534E-14));
#689=DIRECTION('center_axis',(-0.999999999999857,-5.27395365157448E-7,8.63564035095382E-8));
#690=DIRECTION('ref_axis',(-5.27395365157446E-7,0.999999999999861,4.55439667123615E-14));
#691=DIRECTION('',(5.27395365157446E-7,-0.999999999999861,-4.55439667123615E-14));
#692=DIRECTION('',(8.63564034632969E-8,1.58587444598014E-22,0.999999999999996));
#693=DIRECTION('',(5.27395365157446E-7,-0.999999999999861,-4.55439667336672E-14));
#694=DIRECTION('',(-8.63564035095502E-8,0.,-0.999999999999996));
#695=DIRECTION('center_axis',(5.27395364910728E-7,-0.999999999999861,-4.55439669412975E-14));
#696=DIRECTION('ref_axis',(-0.999999999999857,-5.2739536491073E-7,8.63564035095502E-8));
#697=DIRECTION('',(0.999999999999857,5.2739536491073E-7,-8.63564035095502E-8));
#698=DIRECTION('',(-0.999999999999857,-5.27395364910729E-7,8.63564035095502E-8));
#699=DIRECTION('',(-8.63564035095502E-8,0.,-0.999999999999996));
#700=DIRECTION('center_axis',(-8.63564035095502E-8,0.,-0.999999999999996));
#701=DIRECTION('ref_axis',(-0.999999999999996,0.,8.63564035095502E-8));
#702=DIRECTION('',(0.999999999999857,5.27395364910729E-7,-8.63564035095502E-8));
#703=DIRECTION('',(5.27395365157446E-7,-0.999999999999861,-4.55439667123615E-14));
#704=DIRECTION('center_axis',(-0.999999999999857,-5.27395364910729E-7,8.63564035095502E-8));
#705=DIRECTION('ref_axis',(-3.38484521696733E-7,0.499999999999928,-0.866025403784414));
#706=DIRECTION('center_axis',(-0.999999999999857,-5.27395365130113E-7,8.63564032079841E-8));
#707=DIRECTION('ref_axis',(-3.38484521522631E-7,0.499999999999928,-0.866025403784414));
#708=DIRECTION('',(0.999999999999857,5.27395364910729E-7,-8.63564035095502E-8));
#709=DIRECTION('center_axis',(0.999999999999857,5.27395365347954E-7,-8.63564035095382E-8));
#710=DIRECTION('ref_axis',(-3.38484521892705E-7,0.499999999999928,-0.866025403784414));
#711=DIRECTION('',(-0.999999999999857,-5.27395364910729E-7,8.63564035095502E-8));
#712=DIRECTION('center_axis',(-4.99915985605634E-7,0.866025403784315,-0.499999999999964));
#713=DIRECTION('ref_axis',(-1.88910842729403E-7,0.499999999999936,0.866025403784455));
#714=DIRECTION('',(-1.88910842729403E-7,0.499999999999936,0.866025403784455));
#715=DIRECTION('',(0.999999999999857,5.27395364910729E-7,-8.63564035095502E-8));
#716=DIRECTION('',(1.88910842729403E-7,-0.499999999999936,-0.866025403784455));
#717=DIRECTION('center_axis',(-8.63564035095622E-8,-2.28942290523705E-22,
-0.999999999999996));
#718=DIRECTION('ref_axis',(-5.27395365157446E-7,0.999999999999861,4.55439667336672E-14));
#719=DIRECTION('',(-5.27395365157446E-7,0.999999999999861,4.55439667336672E-14));
#720=DIRECTION('center_axis',(-0.999999999999857,-5.27395364910729E-7,8.63564035095502E-8));
#721=DIRECTION('ref_axis',(3.38484521696734E-7,-0.499999999999925,0.866025403784416));
#722=DIRECTION('center_axis',(0.999999999999857,5.27395365347952E-7,-8.63564035095406E-8));
#723=DIRECTION('ref_axis',(3.38484521892705E-7,-0.499999999999926,0.866025403784415));
#724=DIRECTION('center_axis',(-0.999999999999857,-5.27395362196088E-7,8.635640532927E-8));
#725=DIRECTION('ref_axis',(3.38484521892705E-7,-0.499999999999926,0.866025403784416));
#726=DIRECTION('',(-0.999999999999857,-5.27395364910729E-7,8.63564035095502E-8));
#727=DIRECTION('center_axis',(-0.999999999999857,-5.27395364910729E-7,8.63564035095502E-8));
#728=DIRECTION('ref_axis',(-3.38484521696733E-7,0.499999999999928,-0.866025403784414));
#729=DIRECTION('center_axis',(-0.999999999999857,-5.27395365130113E-7,8.63564032079841E-8));
#730=DIRECTION('ref_axis',(-3.38484521522631E-7,0.499999999999928,-0.866025403784414));
#731=DIRECTION('',(-0.999999999999857,-5.27395364910729E-7,8.63564035095502E-8));
#732=DIRECTION('center_axis',(0.999999999999857,5.27395365347954E-7,-8.63564035095382E-8));
#733=DIRECTION('ref_axis',(-3.38484521892705E-7,0.499999999999928,-0.866025403784414));
#734=DIRECTION('center_axis',(-4.99915985605634E-7,0.866025403784315,-0.499999999999964));
#735=DIRECTION('ref_axis',(-1.88910842729403E-7,0.499999999999936,0.866025403784455));
#736=DIRECTION('',(1.88910842729403E-7,-0.499999999999936,-0.866025403784455));
#737=DIRECTION('',(0.999999999999857,5.27395364910729E-7,-8.63564035095502E-8));
#738=DIRECTION('',(-1.88910842729403E-7,0.499999999999936,0.866025403784455));
#739=DIRECTION('center_axis',(-0.999999999999857,-5.27395364910729E-7,8.63564035095502E-8));
#740=DIRECTION('ref_axis',(3.38484521696734E-7,-0.499999999999925,0.866025403784416));
#741=DIRECTION('center_axis',(0.999999999999857,5.27395365347952E-7,-8.63564035095406E-8));
#742=DIRECTION('ref_axis',(3.38484521892705E-7,-0.499999999999926,0.866025403784415));
#743=DIRECTION('',(-0.999999999999857,-5.27395364910729E-7,8.63564035095502E-8));
#744=DIRECTION('center_axis',(-0.999999999999857,-5.27395362196088E-7,8.635640532927E-8));
#745=DIRECTION('ref_axis',(3.38484521892705E-7,-0.499999999999926,0.866025403784416));
#746=DIRECTION('center_axis',(0.999999999999857,5.27395365176372E-7,-8.63564032881075E-8));
#747=DIRECTION('ref_axis',(-8.63564032881195E-8,0.,-0.999999999999996));
#748=DIRECTION('',(4.99915985578979E-7,-0.866025403784315,0.499999999999964));
#749=DIRECTION('center_axis',(-0.999999999999857,-5.27395365255435E-7,8.63564033492913E-8));
#750=DIRECTION('ref_axis',(8.63564033493034E-8,0.,0.999999999999996));
#751=DIRECTION('',(4.99915985625238E-7,-0.866025403784315,0.499999999999964));
#752=DIRECTION('',(8.63564035558155E-8,1.58587444598014E-22,0.999999999999996));
#753=DIRECTION('center_axis',(-0.999999999999857,-5.27395364657118E-7,8.63564039488186E-8));
#754=DIRECTION('ref_axis',(8.63564039488306E-8,0.,0.999999999999996));
#755=DIRECTION('',(4.9991598553272E-7,-0.866025403784315,0.499999999999964));
#756=DIRECTION('center_axis',(0.999999999999857,5.27395364657118E-7,-8.63564039488186E-8));
#757=DIRECTION('ref_axis',(-8.63564039488306E-8,0.,-0.999999999999996));
#758=DIRECTION('',(4.99915985717757E-7,-0.866025403784315,0.499999999999964));
#759=DIRECTION('center_axis',(-0.999999999999857,-5.27395365157448E-7,8.63564035095502E-8));
#760=DIRECTION('ref_axis',(8.63564035095622E-8,0.,0.999999999999996));
#761=DIRECTION('center_axis',(0.999999999999857,5.27395365347952E-7,-8.63564035095405E-8));
#762=DIRECTION('ref_axis',(-8.63564035095525E-8,0.,-0.999999999999996));
#763=DIRECTION('',(8.63564036020738E-8,4.17574773060049E-15,0.999999999999996));
#764=DIRECTION('center_axis',(-0.999999999999857,-5.27395362011051E-7,8.63564050087762E-8));
#765=DIRECTION('ref_axis',(8.63564050087882E-8,0.,0.999999999999996));
#766=DIRECTION('',(8.63564034170366E-8,4.17574755413529E-15,0.999999999999996));
#767=DIRECTION('center_axis',(-0.999999999999857,-5.27395365157448E-7,8.63564035095502E-8));
#768=DIRECTION('ref_axis',(8.63564035095622E-8,0.,0.999999999999996));
#769=DIRECTION('',(-5.27395365157446E-7,0.999999999999861,4.16333634234434E-14));
#770=DIRECTION('',(-8.63564035095599E-8,-4.44089209850105E-15,-0.999999999999996));
#771=DIRECTION('',(-5.27395365157446E-7,0.999999999999861,4.16333634234434E-14));
#772=DIRECTION('center_axis',(0.999999999999857,5.27395365157448E-7,-8.63564035095502E-8));
#773=DIRECTION('ref_axis',(-8.63564035095622E-8,0.,-0.999999999999996));
#774=DIRECTION('',(5.27395365157446E-7,-0.999999999999861,-4.16333634234434E-14));
#775=DIRECTION('',(5.27395365157446E-7,-0.999999999999861,-4.16333634234434E-14));
#776=DIRECTION('',(8.63564035095599E-8,4.44089209850105E-15,0.999999999999996));
#777=DIRECTION('center_axis',(4.37113882867366E-8,-0.999999999999999,6.66133813648571E-16));
#778=DIRECTION('ref_axis',(0.999999999999995,4.37113882867364E-8,-8.6356403483772E-8));
#779=DIRECTION('',(0.999999999999995,4.37113882867364E-8,-8.6356403483772E-8));
#780=DIRECTION('',(8.63564035095502E-8,4.44089209850063E-15,0.999999999999996));
#781=DIRECTION('',(0.999999999999995,4.37113882867364E-8,-8.6356403483772E-8));
#782=DIRECTION('center_axis',(4.37113882867366E-8,-0.999999999999999,6.66133813648571E-16));
#783=DIRECTION('ref_axis',(0.999999999999995,4.37113882867364E-8,-8.6356403483772E-8));
#784=DIRECTION('',(0.999999999999995,4.37113882867364E-8,-8.6356403483772E-8));
#785=DIRECTION('',(8.63564035095502E-8,4.44089209850063E-15,0.999999999999996));
#786=DIRECTION('',(0.999999999999995,4.37113882867364E-8,-8.6356403483772E-8));
#787=DIRECTION('center_axis',(-0.715754700561558,0.698351779996321,6.18099986342465E-8));
#788=DIRECTION('ref_axis',(-0.698351779996319,-0.715754700561561,6.03071510405042E-8));
#789=DIRECTION('',(0.698351779996319,0.715754700561561,-6.03071510405042E-8));
#790=DIRECTION('',(8.63564035095502E-8,4.44089209850062E-15,0.999999999999996));
#791=DIRECTION('',(-0.698351779996319,-0.715754700561561,6.03071510405042E-8));
#792=DIRECTION('',(8.63564035095502E-8,4.44089209850062E-15,0.999999999999996));
#793=DIRECTION('center_axis',(-0.0123057231441337,0.999924281722321,1.06267355275578E-9));
#794=DIRECTION('ref_axis',(-0.999924281722318,-0.0123057231441338,8.63498642591326E-8));
#795=DIRECTION('',(0.999924281722318,0.0123057231441337,-8.63498642591326E-8));
#796=DIRECTION('',(-0.999924281722318,-0.0123057231441337,8.63498642591326E-8));
#797=DIRECTION('',(8.63564035095502E-8,4.44089209850062E-15,0.999999999999996));
#798=DIRECTION('center_axis',(0.0123056357279766,0.999924282798118,-1.06267488492253E-9));
#799=DIRECTION('ref_axis',(-0.999924282798114,0.0123056357279766,8.63498652850368E-8));
#800=DIRECTION('',(-0.999924282798114,0.0123056357279766,8.63498652850368E-8));
#801=DIRECTION('',(-0.999924282798114,0.0123056357279766,8.63498652850367E-8));
#802=DIRECTION('',(8.63564035095502E-8,4.44089209850062E-15,0.999999999999996));
#803=DIRECTION('center_axis',(0.715754639509704,0.698351842569582,-6.1809999564638E-8));
#804=DIRECTION('ref_axis',(-0.69835184256958,0.715754639509706,6.0307150537043E-8));
#805=DIRECTION('',(-0.69835184256958,0.715754639509706,6.0307150537043E-8));
#806=DIRECTION('',(-0.69835184256958,0.715754639509706,6.0307150537043E-8));
#807=DIRECTION('',(8.63564035095502E-8,4.44089209850062E-15,0.999999999999996));
#808=DIRECTION('center_axis',(8.63564035095502E-8,4.44089209850063E-15,
0.999999999999996));
#809=DIRECTION('ref_axis',(-4.37113882867366E-8,0.999999999999999,-6.66133813648572E-16));
#810=DIRECTION('center_axis',(-8.63564034837718E-8,-3.77475828372524E-15,
-0.999999999999996));
#811=DIRECTION('ref_axis',(-4.37113882867365E-8,0.999999999999999,-9.18735153282274E-31));
#812=DIRECTION('',(-8.63564035095502E-8,-4.44089209850062E-15,-0.999999999999996));
#813=DIRECTION('center_axis',(8.63564034837718E-8,3.77475828372524E-15,
0.999999999999996));
#814=DIRECTION('ref_axis',(-4.37113882867365E-8,0.999999999999999,-9.18735153282274E-31));
#815=DIRECTION('center_axis',(0.999999999999857,5.27395365127908E-7,-8.63564035095406E-8));
#816=DIRECTION('ref_axis',(-5.27395365127906E-7,0.999999999999861,4.17692086627321E-14));
#817=DIRECTION('',(-5.27395365127906E-7,0.999999999999861,4.17692086627321E-14));
#818=DIRECTION('',(-5.27395365127906E-7,0.999999999999861,4.17692086627321E-14));
#819=DIRECTION('center_axis',(-0.9999999999999,4.39972588229418E-7,8.63564035095399E-8));
#820=DIRECTION('ref_axis',(-4.39972588229416E-7,-0.999999999999903,4.17692086346639E-14));
#821=DIRECTION('',(4.39972588229416E-7,0.999999999999903,-4.17692086346639E-14));
#822=DIRECTION('',(-4.39972588229416E-7,-0.999999999999903,4.17692086346639E-14));
#823=DIRECTION('center_axis',(8.63564034837718E-8,3.77475828372524E-15,
0.999999999999996));
#824=DIRECTION('ref_axis',(-4.37113882867365E-8,0.999999999999999,-5.73132269994901E-31));
#825=DIRECTION('center_axis',(8.63564034837719E-8,3.77475828372524E-15,
0.999999999999996));
#826=DIRECTION('ref_axis',(-4.37113882867365E-8,0.999999999999999,-5.73132269994901E-31));
#827=DIRECTION('',(0.,0.,1.));
#828=DIRECTION('',(1.,0.,0.));
#829=CARTESIAN_POINT('',(0.,0.,0.));
#830=CARTESIAN_POINT('',(0.,0.,0.));
#831=CARTESIAN_POINT('Origin',(16.769217856477,18.7813749266882,3.00000777207633));
#832=CARTESIAN_POINT('',(18.8692178564767,18.7813760342185,3.00000777207633));
#833=CARTESIAN_POINT('',(14.6692178564772,18.7813738191579,3.00000777207633));
#834=CARTESIAN_POINT('Origin',(16.769217856477,18.7813749266882,3.00000632394698));
#835=CARTESIAN_POINT('',(18.8692178564767,18.7813760342185,7.77207632807198E-6));
#836=CARTESIAN_POINT('',(18.8692178564767,18.7813760342185,3.00000777207633));
#837=CARTESIAN_POINT('',(14.6692178564772,18.7813738191579,7.77207632807198E-6));
#838=CARTESIAN_POINT('Origin',(16.769217856477,18.7813749266882,6.32394697219762E-6));
#839=CARTESIAN_POINT('',(14.6692178564772,18.7813738191579,3.00000777207633));
#840=CARTESIAN_POINT('Origin',(14.6692178564772,18.7813738191579,3.00000777207633));
#841=CARTESIAN_POINT('',(14.6692171708633,20.0813738191578,3.00000777207633));
#842=CARTESIAN_POINT('',(14.6692181117223,18.2974009633471,3.00000650529541));
#843=CARTESIAN_POINT('',(14.6692171708633,20.0813738191578,7.77207632807198E-6));
#844=CARTESIAN_POINT('',(14.66921837542,17.7974009633474,6.5052953748812E-6));
#845=CARTESIAN_POINT('',(14.6692171708633,20.0813738191578,3.00000777207633));
#846=CARTESIAN_POINT('Origin',(16.769217170863,20.081374926688,3.00000777207633));
#847=CARTESIAN_POINT('',(18.8692171708627,20.0813760342183,3.00000777207633));
#848=CARTESIAN_POINT('Origin',(16.769217170863,20.081374926688,3.00000632394704));
#849=CARTESIAN_POINT('',(18.8692171708627,20.0813760342183,7.77207632807198E-6));
#850=CARTESIAN_POINT('Origin',(16.769217170863,20.081374926688,6.32394703159456E-6));
#851=CARTESIAN_POINT('',(18.8692171708627,20.0813760342183,3.00000777207633));
#852=CARTESIAN_POINT('Origin',(18.8692171708627,20.0813760342183,3.00000777207633));
#853=CARTESIAN_POINT('',(18.8692179403185,18.6224026246425,3.00000614259853));
#854=CARTESIAN_POINT('',(18.86921837542,17.7974020708776,6.14259848014109E-6));
#855=CARTESIAN_POINT('Origin',(12.269219764566,15.1634257342576,3.00000671255063));
#856=CARTESIAN_POINT('',(12.2692152627727,23.6993241191187,3.00000671255102));
#857=CARTESIAN_POINT('',(12.269219764566,15.1634257342576,3.00000671255063));
#858=CARTESIAN_POINT('',(12.2692187097752,17.1634257342573,3.00000671255073));
#859=CARTESIAN_POINT('',(12.2692150037035,23.6993241191187,6.7125510331443E-6));
#860=CARTESIAN_POINT('',(12.2692150037035,23.6993241191187,6.7125510331443E-6));
#861=CARTESIAN_POINT('',(12.2692195054968,15.1634257342576,6.71255064532694E-6));
#862=CARTESIAN_POINT('',(12.2692131767524,27.1634257342559,6.71255119091322E-6));
#863=CARTESIAN_POINT('',(12.269219764566,15.1634257342576,3.00000671255063));
#864=CARTESIAN_POINT('Origin',(21.2692197645647,15.1634304808159,3.000005935343));
#865=CARTESIAN_POINT('',(21.2692197645647,15.1634304808159,3.000005935343));
#866=CARTESIAN_POINT('',(12.269219764566,15.1634257342576,3.00000671255063));
#867=CARTESIAN_POINT('',(21.2692195054955,15.1634304808159,5.93534301374099E-6));
#868=CARTESIAN_POINT('',(12.2692195054968,15.1634257342576,6.71255064588205E-6));
#869=CARTESIAN_POINT('',(21.2692197645647,15.1634304808159,3.000005935343));
#870=CARTESIAN_POINT('Origin',(16.7692189781008,16.1634281075366,6.32394687560822E-6));
#871=CARTESIAN_POINT('',(21.2692150037022,23.6993288656769,5.93534340155834E-6));
#872=CARTESIAN_POINT('',(16.7692150037029,23.6993264923978,6.32394721811202E-6));
#873=CARTESIAN_POINT('',(21.2692184507048,17.1634304808156,5.93534310533439E-6));
#874=CARTESIAN_POINT('Origin',(16.7692155218413,23.6993264923978,6.0000063239472));
#875=CARTESIAN_POINT('',(12.269214022094,26.2974003304716,4.50000671255112));
#876=CARTESIAN_POINT('Origin',(12.2692155218419,23.6993241191187,6.00000671255101));
#877=CARTESIAN_POINT('',(21.2692152627715,23.6993288656769,3.00000593534339));
#878=CARTESIAN_POINT('',(16.7692152627721,23.6993264923978,3.00000632394721));
#879=CARTESIAN_POINT('',(21.2692140220927,26.2974050770299,4.50000593534349));
#880=CARTESIAN_POINT('Origin',(21.2692155218407,23.6993288656769,6.00000593534338));
#881=CARTESIAN_POINT('',(16.7692140220933,26.2974027037507,4.50000632394731));
#882=CARTESIAN_POINT('Origin',(16.7692146764997,24.5653518961821,1.50000632394727));
#883=CARTESIAN_POINT('',(21.2692137928034,26.90427669353,5.55113840879331));
#884=CARTESIAN_POINT('',(21.2692134656003,27.7703020973143,7.05113840879333));
#885=CARTESIAN_POINT('',(12.2692137928047,26.9042719469717,5.55113918600094));
#886=CARTESIAN_POINT('',(16.7692137928041,26.9042743202509,5.55113879739712));
#887=CARTESIAN_POINT('',(12.2692134656016,27.770297350756,7.05113918600096));
#888=CARTESIAN_POINT('Origin',(16.7692187097746,17.1634281075364,3.00000632394691));
#889=CARTESIAN_POINT('',(21.2692134358203,27.1634304808142,3.00000593534355));
#890=CARTESIAN_POINT('Origin',(16.7692107933082,32.1004267429568,2.55113879739734));
#891=CARTESIAN_POINT('',(12.2692113114472,32.1004243696776,8.55113918600113));
#892=CARTESIAN_POINT('Origin',(12.2692107933088,32.1004243696776,2.55113918600115));
#893=CARTESIAN_POINT('',(21.269211311446,32.1004291162359,8.5511384087935));
#894=CARTESIAN_POINT('Origin',(21.2692107933075,32.1004291162359,2.55113840879352));
#895=CARTESIAN_POINT('',(16.7692113114466,32.1004267429568,8.55113879739731));
#896=CARTESIAN_POINT('Origin',(16.7692155218413,23.6993264923978,6.0000063239472));
#897=CARTESIAN_POINT('',(12.269212522346,28.8954765418246,3.00000671255123));
#898=CARTESIAN_POINT('Origin',(12.2692155218419,23.6993241191187,6.00000671255101));
#899=CARTESIAN_POINT('',(21.2692125223447,28.8954812883828,3.0000059353436));
#900=CARTESIAN_POINT('',(16.7692125223454,28.8954789151037,3.00000632394741));
#901=CARTESIAN_POINT('Origin',(21.2692155218407,23.6993288656769,6.00000593534338));
#902=CARTESIAN_POINT('Origin',(16.7692131767517,27.163428107535,6.32394737576369E-6));
#903=CARTESIAN_POINT('',(12.2692122930568,29.5023481583247,4.05113918600104));
#904=CARTESIAN_POINT('',(12.2692119658536,30.368373562109,5.55113918600107));
#905=CARTESIAN_POINT('',(21.2692122930555,29.502352904883,4.05113840879341));
#906=CARTESIAN_POINT('',(16.7692122930561,29.5023505316038,4.05113879739723));
#907=CARTESIAN_POINT('',(21.2692119658523,30.3683783086673,5.55113840879344));
#908=CARTESIAN_POINT('Origin',(16.7692107933082,32.1004267429568,2.55113879739734));
#909=CARTESIAN_POINT('',(12.269211052378,32.1004243696776,5.55113918600114));
#910=CARTESIAN_POINT('Origin',(12.2692107933088,32.1004243696776,2.55113918600115));
#911=CARTESIAN_POINT('',(21.2692110523767,32.1004291162359,5.55113840879351));
#912=CARTESIAN_POINT('',(16.7692110523774,32.1004267429568,5.55113879739733));
#913=CARTESIAN_POINT('Origin',(21.2692107933075,32.1004291162359,2.55113840879352));
#914=CARTESIAN_POINT('Origin',(12.2692134909348,26.6993241191182,0.803854289844528));
#915=CARTESIAN_POINT('',(12.269212522346,28.8954765418246,3.00000671255123));
#916=CARTESIAN_POINT('Origin',(21.2692134909335,26.6993288656765,0.803853512636897));
#917=CARTESIAN_POINT('',(21.2692125223447,28.8954812883828,3.0000059353436));
#918=CARTESIAN_POINT('',(21.2692150037022,23.6993288656769,5.93534340155834E-6));
#919=CARTESIAN_POINT('Origin',(21.2692124077001,29.1989170966329,3.52557217206851));
#920=CARTESIAN_POINT('',(21.2692122930555,29.502352904883,4.05113840879341));
#921=CARTESIAN_POINT('Origin',(12.2692124077014,29.1989123500746,3.52557294927614));
#922=CARTESIAN_POINT('',(12.2692122930568,29.5023481583247,4.05113918600104));
#923=CARTESIAN_POINT('Origin',(21.2692167272035,20.4313796732463,5.93534325272297E-6));
#924=CARTESIAN_POINT('Origin',(12.2692118087624,30.6004243696778,5.1492153973544));
#925=CARTESIAN_POINT('',(12.269211052378,32.1004243696776,5.55113918600114));
#926=CARTESIAN_POINT('Origin',(21.2692118087611,30.6004291162361,5.14921462014677));
#927=CARTESIAN_POINT('',(21.2692110523767,32.1004291162359,5.55113840879351));
#928=CARTESIAN_POINT('Origin',(21.2692109817192,32.2344037124515,5.55113840879352));
#929=CARTESIAN_POINT('',(21.2692109110616,32.368378308667,5.55113840879352));
#930=CARTESIAN_POINT('',(21.2692109110616,32.368378308667,5.55113840879352));
#931=CARTESIAN_POINT('',(21.2692111701308,32.368378308667,8.55113840879351));
#932=CARTESIAN_POINT('',(21.2692109110616,32.3683783092439,5.55113840879352));
#933=CARTESIAN_POINT('',(21.2692111701308,32.368378308667,8.55113840879351));
#934=CARTESIAN_POINT('Origin',(12.2692109817204,32.2343989658932,5.55113918600115));
#935=CARTESIAN_POINT('',(12.2692109110629,32.3683735621087,5.55113918600115));
#936=CARTESIAN_POINT('',(12.2692109110629,32.3683735621087,5.55113918600115));
#937=CARTESIAN_POINT('',(12.2692111701321,32.3683735621087,8.55113918600114));
#938=CARTESIAN_POINT('',(12.2692111701321,32.3683735621087,8.55113918600114));
#939=CARTESIAN_POINT('',(12.2692109110606,32.3683779158414,5.55113918600115));
#940=CARTESIAN_POINT('Origin',(12.2680148879622,32.3683779157891,5.55113918610444));
#941=CARTESIAN_POINT('',(12.2680151470314,32.3683779157891,8.55113918610443));
#942=CARTESIAN_POINT('',(12.2680151470314,32.3683779157891,8.55113918610443));
#943=CARTESIAN_POINT('',(12.2680148879622,32.3683779157891,5.55113918610444));
#944=CARTESIAN_POINT('',(12.2680148879622,32.3683779157891,5.55113918610444));
#945=CARTESIAN_POINT('',(12.2680148879622,32.3683779157891,5.55113918610444));
#946=CARTESIAN_POINT('Origin',(12.2680148879622,32.3683779157891,5.55113918610444));
#947=CARTESIAN_POINT('',(21.2704036298389,32.368378309296,5.55113840869052));
#948=CARTESIAN_POINT('',(12.2680148879622,32.3683779157891,5.55113918610444));
#949=CARTESIAN_POINT('',(21.2704038889082,32.3683783092961,8.55113840869051));
#950=CARTESIAN_POINT('',(21.2704036298389,32.368378309296,5.55113840869052));
#951=CARTESIAN_POINT('',(12.2680151470314,32.3683779157891,8.55113918610443));
#952=CARTESIAN_POINT('Origin',(14.4388309378563,41.424849046153,5.55113899864054));
#953=CARTESIAN_POINT('',(12.268017893662,39.1999393589026,5.55113918610415));
#954=CARTESIAN_POINT('',(14.9999988729351,42.0000012815196,5.55113895018009));
#955=CARTESIAN_POINT('',(11.9200143949359,38.8432636158747,5.55113921615648));
#956=CARTESIAN_POINT('',(12.2680181527312,39.1999393589026,8.55113918610414));
#957=CARTESIAN_POINT('',(12.268017893662,39.1999393589026,5.55113918610415));
#958=CARTESIAN_POINT('',(14.9999991320043,42.0000012815196,8.55113895018008));
#959=CARTESIAN_POINT('',(11.9200146540051,38.8432636158747,8.55113921615647));
#960=CARTESIAN_POINT('',(14.9999988729351,42.0000012815196,5.55113895018009));
#961=CARTESIAN_POINT('Origin',(16.7692088369372,42.0217743381388,5.55113879739748));
#962=CARTESIAN_POINT('',(16.7692088369372,42.0217743381388,5.55113879739748));
#963=CARTESIAN_POINT('',(14.9999988729351,42.0000012815196,5.55113895018009));
#964=CARTESIAN_POINT('',(16.7692090960064,42.0217743381389,8.55113879739747));
#965=CARTESIAN_POINT('',(14.9999991320043,42.0000012815196,8.55113895018008));
#966=CARTESIAN_POINT('',(16.7692088369372,42.0217743381388,5.55113879739748));
#967=CARTESIAN_POINT('Origin',(17.279350422105,42.0154962462625,5.55113875334349));
#968=CARTESIAN_POINT('',(18.5384188028428,42.0000014361889,5.55113864461487));
#969=CARTESIAN_POINT('',(18.5384188028428,42.0000014361889,5.55113864461487));
#970=CARTESIAN_POINT('',(18.538419061912,42.0000014361889,8.55113864461486));
#971=CARTESIAN_POINT('',(18.538419061912,42.0000014361889,8.55113864461486));
#972=CARTESIAN_POINT('',(18.5384188028428,42.0000014361889,5.55113864461487));
#973=CARTESIAN_POINT('Origin',(20.9069075420401,39.5724904018237,5.55113844008071));
#974=CARTESIAN_POINT('',(21.2704000269051,39.1999397524092,5.55113840869081));
#975=CARTESIAN_POINT('',(21.6184035568127,38.8432640398048,5.55113837863848));
#976=CARTESIAN_POINT('',(21.2704002859743,39.1999397524092,8.5511384086908));
#977=CARTESIAN_POINT('',(21.618403815882,38.8432640398048,8.55113837863847));
#978=CARTESIAN_POINT('',(21.2704000269051,39.1999397524092,5.55113840869081));
#979=CARTESIAN_POINT('Origin',(16.7692090414414,37.3432638278425,5.55113879739748));
#980=CARTESIAN_POINT('',(16.7692093834664,35.4454578208485,8.55113879739747));
#981=CARTESIAN_POINT('Origin',(16.7692093005106,37.3432638278425,8.55113879739747));
#982=CARTESIAN_POINT('',(16.7692091243972,35.4454578208485,5.55113879739748));
#983=CARTESIAN_POINT('',(16.7692091243972,35.4454578208485,5.55113879739748));
#984=CARTESIAN_POINT('Origin',(16.7692090414414,37.3432638278425,5.55113879739748));
#985=CARTESIAN_POINT('Origin',(21.2704017194112,35.9907607868881,5.55113840869067));
#986=CARTESIAN_POINT('',(21.2704036298389,32.368378309296,5.55113840869052));
#987=CARTESIAN_POINT('',(21.2704038889082,32.3683783092961,8.55113840869051));
#988=CARTESIAN_POINT('Origin',(12.2680170767755,37.3432636310892,5.55113918610423));
#989=CARTESIAN_POINT('',(12.2680148879622,32.3683779157891,5.55113918610444));
#990=CARTESIAN_POINT('',(12.2680151470314,32.3683779157891,8.55113918610443));
#991=CARTESIAN_POINT('Origin',(16.7692094032324,34.9932638278425,8.55113879739747));
#992=CARTESIAN_POINT('Origin',(16.7692091441632,34.9932638278425,5.55113879739748));
#993=CARTESIAN_POINT('',(0.,0.,0.));
#994=UNCERTAINTY_MEASURE_WITH_UNIT(LENGTH_MEASURE(0.01),#1000,
'DISTANCE_ACCURACY_VALUE',
'Maximum model space distance between geometric entities at asserted c
onnectivities');
#995=UNCERTAINTY_MEASURE_WITH_UNIT(LENGTH_MEASURE(0.01),#1000,
'DISTANCE_ACCURACY_VALUE',
'Maximum model space distance between geometric entities at asserted c
onnectivities');
#996=UNCERTAINTY_MEASURE_WITH_UNIT(LENGTH_MEASURE(0.01),#1000,
'DISTANCE_ACCURACY_VALUE',
'Maximum model space distance between geometric entities at asserted c
onnectivities');
#997=(
GEOMETRIC_REPRESENTATION_CONTEXT(3)
GLOBAL_UNCERTAINTY_ASSIGNED_CONTEXT((#994))
GLOBAL_UNIT_ASSIGNED_CONTEXT((#1000,#1002,#1003))
REPRESENTATION_CONTEXT('','3D')
);
#998=(
GEOMETRIC_REPRESENTATION_CONTEXT(3)
GLOBAL_UNCERTAINTY_ASSIGNED_CONTEXT((#995))
GLOBAL_UNIT_ASSIGNED_CONTEXT((#1000,#1002,#1003))
REPRESENTATION_CONTEXT('','3D')
);
#999=(
GEOMETRIC_REPRESENTATION_CONTEXT(3)
GLOBAL_UNCERTAINTY_ASSIGNED_CONTEXT((#996))
GLOBAL_UNIT_ASSIGNED_CONTEXT((#1000,#1002,#1003))
REPRESENTATION_CONTEXT('','3D')
);
#1000=(
LENGTH_UNIT()
NAMED_UNIT(*)
SI_UNIT(.MILLI.,.METRE.)
);
#1001=(
LENGTH_UNIT()
NAMED_UNIT(*)
SI_UNIT($,.METRE.)
);
#1002=(
NAMED_UNIT(*)
PLANE_ANGLE_UNIT()
SI_UNIT($,.RADIAN.)
);
#1003=(
NAMED_UNIT(*)
SI_UNIT($,.STERADIAN.)
SOLID_ANGLE_UNIT()
);
#1004=SHAPE_DEFINITION_REPRESENTATION(#1006,#1009);
#1005=SHAPE_DEFINITION_REPRESENTATION(#1007,#1010);
#1006=PRODUCT_DEFINITION_SHAPE('',$,#1012);
#1007=PRODUCT_DEFINITION_SHAPE('',$,#1013);
#1008=PRODUCT_DEFINITION_SHAPE($,$,#14);
#1009=SHAPE_REPRESENTATION('',(#610,#660),#997);
#1010=SHAPE_REPRESENTATION('',(#611),#998);
#1011=PRODUCT_DEFINITION_CONTEXT('part definition',#1019,'design');
#1012=PRODUCT_DEFINITION('PCB','board v14',#1014,#1011);
#1013=PRODUCT_DEFINITION('LV Bus Bar','LV Bus Bar',#1015,#1011);
#1014=PRODUCT_DEFINITION_FORMATION('',$,#1021);
#1015=PRODUCT_DEFINITION_FORMATION('',$,#1022);
#1016=PRODUCT_RELATED_PRODUCT_CATEGORY('board v14','board v14',(#1021));
#1017=PRODUCT_RELATED_PRODUCT_CATEGORY('LV Bus Bar','LV Bus Bar',(#1022));
#1018=APPLICATION_PROTOCOL_DEFINITION('international standard',
'automotive_design',2009,#1019);
#1019=APPLICATION_CONTEXT(
'Core Data for Automotive Mechanical Design Process');
#1020=PRODUCT_CONTEXT('part definition',#1019,'mechanical');
#1021=PRODUCT('PCB','board v14','Open CASCADE Model',(#1020));
#1022=PRODUCT('LV Bus Bar','LV Bus Bar',$,(#1020));
#1023=PRESENTATION_STYLE_ASSIGNMENT((#1024));
#1024=SURFACE_STYLE_USAGE(.BOTH.,#1025);
#1025=SURFACE_SIDE_STYLE('',(#1026));
#1026=SURFACE_STYLE_FILL_AREA(#1027);
#1027=FILL_AREA_STYLE('Steel - Satin',(#1028));
#1028=FILL_AREA_STYLE_COLOUR('Steel - Satin',#1029);
#1029=COLOUR_RGB('Steel - Satin',0.627450980392157,0.627450980392157,0.627450980392157);
ENDSEC;
END-ISO-10303-21;
